<svg width="29" height="48" viewBox="0 0 29 48" fill="none" xmlns="http://www.w3.org/2000/svg">
<path d="M14.6602 23.0001C16.1602 21.2101 18.5902 20.0001 24.8742 20.0001C25.0809 20.0008 25.28 19.9221 25.4302 19.7801C25.5024 19.7119 25.5601 19.6297 25.5998 19.5387C25.6395 19.4476 25.6604 19.3494 25.6612 19.2501V5.75007C25.6618 5.65045 25.6416 5.55179 25.602 5.46037C25.5624 5.36896 25.5042 5.28678 25.4312 5.21907C25.28 5.07807 25.0809 4.99979 24.8742 5.00007C18.4132 5.02807 15.4462 6.54007 14.6602 9.50007H14.6592C13.8732 6.54007 10.9052 5.02807 4.44517 5.00007C4.23858 4.99729 4.0392 5.07596 3.89017 5.21907C3.81709 5.28678 3.7589 5.36896 3.71931 5.46037C3.67971 5.55179 3.65957 5.65045 3.66017 5.75007V19.1601C3.66017 19.6231 3.96017 20.0001 4.44617 20.0001C10.7312 20.0001 13.1692 21.2191 14.6602 23.0001ZM14.6602 23.0001V9.00007" stroke="#F65B66" stroke-width="2" stroke-linecap="round" stroke-linejoin="round"/>
</svg>
