<svg width="207" height="32" viewBox="0 0 207 32" fill="none" xmlns="http://www.w3.org/2000/svg">
<g clip-path="url(#clip0_3_7637)">
<g clip-path="url(#clip1_3_7637)">
<g clip-path="url(#clip2_3_7637)">
<path d="M24.9694 8.46924H26.1122L29.3691 5.21237L29.529 3.82963C27.6632 2.18285 25.4086 1.0389 22.9778 0.505823C20.5469 -0.0272531 18.0204 0.0681494 15.6368 0.783018C13.2531 1.49789 11.091 2.80862 9.3548 4.59141C7.61855 6.37418 6.36545 8.57016 5.71387 10.9719C6.07669 10.8232 6.47862 10.7991 6.85663 10.9033L13.3704 9.82913C13.3704 9.82913 13.7018 9.28061 13.8732 9.31489C15.2688 7.78206 17.1977 6.84068 19.2647 6.68348C21.3319 6.52627 23.3809 7.16512 24.9923 8.46924H24.9694Z" fill="#EA4335"/>
<path d="M34.0086 10.9717C33.2599 8.2149 31.7229 5.73661 29.5861 3.84082L25.015 8.41187C25.9677 9.19029 26.7311 10.1749 27.2479 11.2913C27.7645 12.4078 28.0208 13.627 27.9976 14.8571V15.6685C28.5319 15.6685 29.061 15.7736 29.5545 15.9781C30.0481 16.1826 30.4965 16.4822 30.8743 16.86C31.2521 17.2377 31.5517 17.6862 31.7562 18.1798C31.9606 18.6734 32.0659 19.2024 32.0659 19.7367C32.0659 20.2709 31.9606 20.7999 31.7562 21.2935C31.5517 21.787 31.2521 22.2356 30.8743 22.6134C30.4965 22.9911 30.0481 23.2908 29.5545 23.4952C29.061 23.6997 28.5319 23.8049 27.9976 23.8049H19.8612L19.0498 24.6277V29.5073L19.8612 30.3187H27.9976C30.2698 30.3363 32.4872 29.6223 34.3219 28.2819C36.1567 26.9417 37.5114 25.0465 38.1855 22.8767C38.8597 20.7068 38.8175 18.3776 38.0653 16.2336C37.313 14.0896 35.8907 12.2446 34.0086 10.9717Z" fill="#4285F4"/>
<path d="M11.7133 30.2735H19.8498V23.7597H11.7133C11.1335 23.7596 10.5607 23.6349 10.0334 23.394L8.89061 23.7483L5.61089 27.0052L5.3252 28.1479C7.16439 29.5367 9.40859 30.2835 11.7133 30.2735Z" fill="#34A853"/>
<path d="M11.7131 9.14362C9.50851 9.15679 7.36308 9.85819 5.57646 11.1499C3.78985 12.4416 2.45127 14.2589 1.74768 16.3483C1.04411 18.4376 1.01066 20.6946 1.65201 22.8039C2.29338 24.9131 3.57751 26.7694 5.32507 28.1135L10.0447 23.3939C9.44491 23.1229 8.91984 22.7104 8.51452 22.192C8.10919 21.6735 7.83572 21.0643 7.71754 20.4169C7.59938 19.7694 7.64005 19.103 7.83608 18.4748C8.0321 17.8465 8.37762 17.2751 8.84299 16.8098C9.30837 16.3444 9.87969 15.9989 10.508 15.8029C11.1362 15.6068 11.8027 15.5662 12.4501 15.6844C13.0976 15.8025 13.7066 16.076 14.2251 16.4813C14.7437 16.8866 15.1561 17.4117 15.4271 18.0115L20.1467 13.2919C19.1561 11.9968 17.8793 10.9485 16.4163 10.2289C14.9533 9.50924 13.3436 9.13781 11.7131 9.14362Z" fill="#FBBC05"/>
<path d="M60.3257 25.7247C58.9249 25.7425 57.5348 25.4775 56.2388 24.9453C54.9428 24.4132 53.7676 23.625 52.7834 22.6278C51.7684 21.673 50.9628 20.5176 50.4179 19.235C49.8729 17.9524 49.6006 16.5705 49.618 15.177C49.6013 13.7836 49.8739 12.4019 50.4188 11.1194C50.9637 9.8369 51.7689 8.68146 52.7834 7.72621C53.7628 6.71875 54.9358 5.91994 56.232 5.37789C57.5283 4.83583 58.9207 4.56176 60.3257 4.57219C61.6644 4.55435 62.9932 4.80277 64.235 5.30303C65.4769 5.8033 66.6068 6.54541 67.5593 7.48623L65.5252 9.55463C64.1323 8.2084 62.2627 7.46879 60.3257 7.49766C59.3209 7.48532 58.3244 7.68213 57.3998 8.0756C56.4752 8.46906 55.6425 9.05058 54.9547 9.78318C54.2399 10.4923 53.6759 11.3389 53.2969 12.2718C52.9179 13.2046 52.7315 14.2045 52.7491 15.2113C52.7408 16.2066 52.9316 17.1935 53.3103 18.1139C53.6892 19.0344 54.2482 19.8698 54.9547 20.5708C56.3699 21.9811 58.2795 22.7833 60.2773 22.8069C62.2751 22.8303 64.203 22.0732 65.6509 20.6966C66.5473 19.7149 67.0973 18.4666 67.2165 17.1426H60.3599V14.2171H70.062C70.1574 14.8063 70.1956 15.4033 70.1763 15.9998C70.2366 17.2344 70.046 18.4685 69.6159 19.6274C69.1857 20.7863 68.525 21.8458 67.6736 22.7421C66.7272 23.7276 65.5836 24.5025 64.3175 25.0164C63.0515 25.5303 61.6913 25.7717 60.3257 25.7247ZM82.8838 23.782C81.5817 25.0301 79.8478 25.727 78.0442 25.727C76.2406 25.727 74.5066 25.0301 73.2046 23.782C72.5565 23.1536 72.0462 22.3974 71.7059 21.5614C71.3655 20.7253 71.2027 19.8276 71.2276 18.9253C71.2034 18.0231 71.3666 17.1255 71.7068 16.2896C72.0471 15.4536 72.5571 14.6973 73.2046 14.0685C74.508 12.823 76.2415 12.128 78.0442 12.128C79.847 12.128 81.5805 12.823 82.8838 14.0685C83.5314 14.6973 84.0414 15.4536 84.3816 16.2896C84.7219 17.1255 84.8851 18.0231 84.8608 18.9253C84.8843 19.8285 84.7196 20.7266 84.3774 21.5628C84.035 22.3989 83.5225 23.1546 82.8724 23.782H82.8838ZM75.3416 21.8736C75.6879 22.2435 76.1065 22.5383 76.5714 22.7398C77.0363 22.9414 77.5375 23.0454 78.0442 23.0454C78.5509 23.0454 79.0522 22.9414 79.5171 22.7398C79.982 22.5383 80.4006 22.2435 80.7468 21.8736C81.1245 21.4833 81.4201 21.0213 81.6165 20.515C81.8127 20.0086 81.9056 19.4681 81.8896 18.9253C81.9065 18.3806 81.814 17.8382 81.6177 17.3297C81.4215 16.8214 81.1253 16.3576 80.7468 15.9655C80.396 15.5995 79.9745 15.3082 79.5082 15.1091C79.0417 14.9102 78.5399 14.8076 78.0328 14.8076C77.5257 14.8076 77.0238 14.9102 76.5574 15.1091C76.091 15.3082 75.6696 15.5995 75.3187 15.9655C74.9402 16.3576 74.6441 16.8214 74.4478 17.3297C74.2516 17.8382 74.1591 18.3806 74.1759 18.9253C74.1615 19.4689 74.2563 20.01 74.4544 20.5163C74.6527 21.0227 74.9505 21.4843 75.3301 21.8736H75.3416ZM97.7625 23.782C96.4605 25.0301 94.7267 25.727 92.9229 25.727C91.1193 25.727 89.3854 25.0301 88.0833 23.782C87.4353 23.1536 86.9249 22.3974 86.5846 21.5614C86.2443 20.7253 86.0815 19.8276 86.1064 18.9253C86.0821 18.0231 86.2453 17.1255 86.5855 16.2896C86.9258 15.4536 87.4359 14.6973 88.0833 14.0685C89.3854 12.8204 91.1193 12.1237 92.9229 12.1237C94.7267 12.1237 96.4605 12.8204 97.7625 14.0685C98.4101 14.6973 98.9202 15.4536 99.2604 16.2896C99.6007 17.1255 99.7639 18.0231 99.7395 18.9253C99.7646 19.8276 99.6017 20.7253 99.2614 21.5614C98.9211 22.3974 98.4106 23.1536 97.7625 23.782ZM90.2203 21.8736C90.5667 22.2435 90.9853 22.5383 91.4502 22.7398C91.915 22.9414 92.4162 23.0454 92.9229 23.0454C93.4296 23.0454 93.931 22.9414 94.3959 22.7398C94.8607 22.5383 95.2793 22.2435 95.6256 21.8736C96.0033 21.4833 96.2989 21.0213 96.4952 20.515C96.6914 20.0086 96.7843 19.4681 96.7683 18.9253C96.7853 18.3806 96.6928 17.8382 96.4965 17.3297C96.3003 16.8214 96.0041 16.3576 95.6256 15.9655C95.2748 15.5995 94.8533 15.3082 94.3869 15.1091C93.9205 14.9102 93.4187 14.8076 92.9115 14.8076C92.4045 14.8076 91.9026 14.9102 91.4362 15.1091C90.9697 15.3082 90.5484 15.5995 90.1975 15.9655C89.819 16.3576 89.5229 16.8214 89.3266 17.3297C89.1304 17.8382 89.0379 18.3806 89.0547 18.9253C89.0403 19.4689 89.135 20.01 89.3332 20.5163C89.5315 21.0227 89.8293 21.4843 90.2089 21.8736H90.2203ZM107.545 31.8271C106.175 31.8706 104.832 31.4431 103.739 30.6157C102.769 29.8865 102.005 28.9178 101.522 27.8045L104.128 26.7189C104.411 27.3842 104.855 27.9691 105.419 28.4216C106.023 28.9084 106.781 29.1637 107.556 29.1416C108.048 29.1715 108.54 29.0951 109 28.9176C109.459 28.7401 109.875 28.4657 110.219 28.1131C110.907 27.2826 111.247 26.2177 111.167 25.1419V24.1591H111.064C110.629 24.6763 110.079 25.085 109.458 25.3529C108.837 25.6206 108.162 25.7401 107.487 25.7019C106.629 25.7045 105.78 25.5291 104.993 25.1868C104.207 24.8446 103.499 24.3429 102.916 23.7134C102.284 23.089 101.784 22.3427 101.449 21.5197C101.113 20.6967 100.947 19.8141 100.962 18.9253C100.947 18.0313 101.112 17.1434 101.447 16.3146C101.783 15.486 102.283 14.7336 102.916 14.1028C103.498 13.4708 104.205 12.9666 104.992 12.6222C105.779 12.278 106.629 12.1012 107.487 12.103C108.214 12.1017 108.933 12.2617 109.59 12.5715C110.159 12.8199 110.666 13.1907 111.076 13.6571H111.179V12.5715H114.013V24.7419C114.087 25.7047 113.965 26.6725 113.652 27.5863C113.34 28.4999 112.844 29.3403 112.196 30.0558C111.578 30.6467 110.848 31.1079 110.049 31.4121C109.251 31.7163 108.399 31.8575 107.545 31.8271ZM107.75 23.0506C108.238 23.0614 108.723 22.9646 109.169 22.767C109.615 22.5695 110.013 22.2762 110.333 21.9079C111.038 21.0999 111.41 20.0542 111.373 18.9824C111.415 17.8926 111.044 16.827 110.333 15.9998C110.013 15.6308 109.616 15.3371 109.169 15.1395C108.723 14.9419 108.238 14.8455 107.75 14.857C107.249 14.8468 106.751 14.9433 106.29 15.1403C105.829 15.3375 105.415 15.6303 105.076 15.9998C104.32 16.7973 103.91 17.861 103.933 18.9596C103.922 19.4985 104.017 20.0343 104.213 20.5363C104.409 21.0384 104.702 21.4967 105.076 21.885C105.414 22.258 105.827 22.5549 106.288 22.7558C106.749 22.9568 107.247 23.0574 107.75 23.0506ZM119.053 5.33784V25.3133H116.07V5.33784H119.053ZM127.235 25.7247C126.341 25.7477 125.453 25.586 124.625 25.2498C123.797 24.9135 123.048 24.41 122.424 23.7706C121.79 23.136 121.292 22.3792 120.96 21.5463C120.629 20.7134 120.469 19.8217 120.493 18.9253C120.458 18.0267 120.606 17.1306 120.926 16.2903C121.246 15.4499 121.732 14.6827 122.355 14.0342C122.941 13.4154 123.651 12.926 124.439 12.5973C125.226 12.2687 126.073 12.1081 126.926 12.1258C127.71 12.1176 128.487 12.2693 129.212 12.5715C129.863 12.8346 130.457 13.2229 130.96 13.7143C131.391 14.1309 131.775 14.5948 132.103 15.097C132.368 15.5211 132.593 15.9687 132.777 16.434L133.086 17.2111L123.944 20.9708C124.22 21.6061 124.682 22.1427 125.269 22.5099C125.858 22.8771 126.542 23.0576 127.235 23.0278C127.908 23.0296 128.571 22.8569 129.157 22.5265C129.744 22.196 130.235 21.7191 130.583 21.1422L132.869 22.685C132.285 23.5194 131.538 24.227 130.675 24.7648C129.646 25.4143 128.451 25.748 127.235 25.7247ZM123.418 18.7196L129.498 16.1941C129.31 15.7487 128.975 15.3816 128.549 15.1542C128.071 14.8847 127.531 14.7466 126.983 14.7542C126.053 14.7783 125.17 15.1684 124.527 15.8398C124.14 16.2086 123.842 16.6579 123.65 17.1558C123.458 17.6536 123.379 18.1876 123.418 18.7196Z" fill="white"/>
<path d="M148.708 25.7252C147.439 25.7471 146.18 25.5125 145.004 25.0354C143.829 24.5583 142.762 23.8486 141.867 22.9489C140.973 22.0491 140.27 20.9779 139.8 19.7995C139.329 18.6212 139.103 17.3601 139.131 16.0917C139.103 14.8235 139.329 13.5622 139.8 12.3839C140.27 11.2056 140.973 10.1344 141.867 9.23469C142.762 8.33496 143.829 7.62523 145.004 7.14812C146.18 6.67101 147.439 6.43637 148.708 6.45827C149.992 6.41812 151.269 6.66861 152.441 7.19103C153.615 7.71343 154.656 8.49426 155.484 9.47516L153.839 11.075C153.23 10.3093 152.449 9.69797 151.56 9.29091C150.67 8.88384 149.697 8.69247 148.719 8.73236C147.779 8.71117 146.843 8.88043 145.968 9.22999C145.095 9.57954 144.301 10.1022 143.634 10.7665C142.941 11.4635 142.4 12.2965 142.043 13.2129C141.688 14.1294 141.524 15.1095 141.565 16.0917C141.524 17.074 141.688 18.0542 142.043 18.9706C142.4 19.8869 142.941 20.7199 143.634 21.417C144.301 22.0813 145.095 22.604 145.968 22.9536C146.843 23.3031 147.779 23.4724 148.719 23.4511C149.812 23.4633 150.893 23.2293 151.881 22.7664C152.871 22.3034 153.743 21.6235 154.433 20.777L156.078 22.4226C155.217 23.4529 154.136 24.2769 152.913 24.8339C151.595 25.4421 150.159 25.7467 148.708 25.7252Z" fill="white"/>
<path d="M160.501 25.3135H158.136V6.85791H160.501V25.3135Z" fill="white"/>
<path d="M164.364 14.2056C165.604 12.9746 167.28 12.2837 169.026 12.2837C170.773 12.2837 172.45 12.9746 173.689 14.2056C174.295 14.8455 174.768 15.5991 175.083 16.4228C175.396 17.2465 175.544 18.1241 175.517 19.0052C175.544 19.8863 175.396 20.7639 175.083 21.5876C174.768 22.4113 174.295 23.1648 173.689 23.8048C172.45 25.0358 170.773 25.7267 169.026 25.7267C167.28 25.7267 165.604 25.0358 164.364 23.8048C163.758 23.1648 163.284 22.4113 162.971 21.5876C162.656 20.7639 162.509 19.8863 162.535 19.0052C162.509 18.1241 162.656 17.2465 162.971 16.4228C163.284 15.5991 163.758 14.8455 164.364 14.2056ZM166.123 22.3192C166.496 22.7131 166.945 23.0268 167.443 23.2413C167.942 23.4557 168.479 23.5663 169.02 23.5663C169.563 23.5663 170.099 23.4557 170.597 23.2413C171.096 23.0268 171.545 22.7131 171.917 22.3192C172.331 21.8756 172.652 21.354 172.862 20.785C173.071 20.2162 173.166 19.6111 173.14 19.0052C173.166 18.3993 173.071 17.7942 172.862 17.2253C172.652 16.6564 172.331 16.1348 171.917 15.6912C171.545 15.2973 171.096 14.9836 170.597 14.7691C170.099 14.5547 169.563 14.4441 169.02 14.4441C168.479 14.4441 167.942 14.5547 167.443 14.7691C166.945 14.9836 166.496 15.2973 166.123 15.6912C165.71 16.1348 165.389 16.6564 165.18 17.2253C164.969 17.7942 164.874 18.3993 164.901 19.0052C164.878 19.6099 164.975 20.2133 165.186 20.7802C165.399 21.3472 165.721 21.8664 166.135 22.3078L166.123 22.3192Z" fill="white"/>
<path d="M188.625 25.3134H186.339V23.5649H186.27C185.864 24.229 185.288 24.7732 184.602 25.1419C183.89 25.5544 183.082 25.7713 182.259 25.7705C181.592 25.8161 180.922 25.7104 180.301 25.461C179.679 25.2117 179.122 24.8253 178.671 24.3306C177.806 23.2356 177.371 21.8616 177.448 20.4681V12.6973H179.814V20.0338C179.814 22.3879 180.854 23.5649 182.934 23.5649C183.396 23.5793 183.855 23.4831 184.272 23.2844C184.69 23.0855 185.053 22.7899 185.333 22.4222C185.947 21.6451 186.274 20.6806 186.259 19.691V12.6973H188.625V25.3134Z" fill="white"/>
<path d="M196.658 25.7249C195.856 25.7275 195.063 25.5564 194.333 25.2229C193.603 24.8896 192.953 24.4019 192.43 23.7936C191.245 22.4851 190.611 20.77 190.659 19.0055C190.611 17.2409 191.245 15.5259 192.43 14.2173C192.953 13.609 193.603 13.1214 194.333 12.788C195.063 12.4546 195.856 12.2834 196.658 12.286C197.558 12.2719 198.446 12.4841 199.241 12.9031C199.94 13.2549 200.532 13.7876 200.955 14.4459H201.058L200.955 12.6974V6.85791H203.321V25.3135H201.035V23.5651H200.932C200.509 24.2233 199.917 24.7561 199.218 25.1078C198.43 25.5232 197.55 25.7353 196.658 25.7249ZM197.047 23.5651C197.582 23.5729 198.112 23.4668 198.602 23.254C199.094 23.0413 199.532 22.7267 199.892 22.3309C200.696 21.4159 201.107 20.2211 201.035 19.0055C201.107 17.7898 200.696 16.595 199.892 15.68C199.53 15.2821 199.089 14.9643 198.598 14.7469C198.105 14.5293 197.574 14.4169 197.035 14.4169C196.497 14.4169 195.966 14.5293 195.473 14.7469C194.982 14.9643 194.541 15.2821 194.178 15.68C193.78 16.1301 193.473 16.6545 193.277 17.2231C193.08 17.7919 192.999 18.3936 193.036 18.994C192.999 19.5945 193.08 20.1962 193.277 20.765C193.473 21.3336 193.78 21.858 194.178 22.3081C194.538 22.7109 194.981 23.0315 195.477 23.2484C195.971 23.4653 196.506 23.5733 197.047 23.5651Z" fill="white"/>
</g>
</g>
</g>
<defs>
<clipPath id="clip0_3_7637">
<rect width="206.84" height="32" fill="white"/>
</clipPath>
<clipPath id="clip1_3_7637">
<rect width="206.84" height="32" fill="white"/>
</clipPath>
<clipPath id="clip2_3_7637">
<rect width="206.84" height="31.9973" fill="white" transform="translate(0 0.00146484)"/>
</clipPath>
</defs>
</svg>
