<svg width="125" height="42" viewBox="0 0 125 42" fill="none" xmlns="http://www.w3.org/2000/svg">
<g clip-path="url(#clip0_3_7580)">
<g clip-path="url(#clip1_3_7580)">
<g clip-path="url(#clip2_3_7580)">
<path d="M52.8409 21.5384C52.8409 27.368 48.2804 31.6638 42.6837 31.6638C37.0869 31.6638 32.5264 27.368 32.5264 21.5384C32.5264 15.6677 37.0869 11.4131 42.6837 11.4131C48.2804 11.4131 52.8409 15.6677 52.8409 21.5384ZM48.3946 21.5384C48.3946 17.8955 45.7514 15.403 42.6837 15.403C39.6159 15.403 36.9727 17.8955 36.9727 21.5384C36.9727 25.1448 39.6159 27.6739 42.6837 27.6739C45.7514 27.6739 48.3946 25.1403 48.3946 21.5384Z" fill="#EA4335"/>
<path d="M74.7531 21.5384C74.7531 27.368 70.1925 31.6638 64.5958 31.6638C58.999 31.6638 54.4385 27.368 54.4385 21.5384C54.4385 15.6723 58.999 11.4131 64.5958 11.4131C70.1925 11.4131 74.7531 15.6677 74.7531 21.5384ZM70.3067 21.5384C70.3067 17.8955 67.6635 15.403 64.5958 15.403C61.528 15.403 58.8849 17.8955 58.8849 21.5384C58.8849 25.1448 61.528 27.6739 64.5958 27.6739C67.6635 27.6739 70.3067 25.1403 70.3067 21.5384Z" fill="#FBBC05"/>
<path d="M95.7525 12.0248V30.2029C95.7525 37.6805 91.3426 40.7346 86.1293 40.7346C81.2219 40.7346 78.2683 37.4523 77.1544 34.768L81.0256 33.1565C81.7149 34.8045 83.404 36.7492 86.1248 36.7492C89.4618 36.7492 91.5298 34.6904 91.5298 30.8146V29.3584H91.3746C90.3794 30.5864 88.4621 31.6592 86.0426 31.6592C80.9799 31.6592 76.3418 27.2493 76.3418 21.5749C76.3418 15.8595 80.9799 11.4131 86.0426 11.4131C88.4575 11.4131 90.3748 12.4859 91.3746 13.6774H91.5298V12.0294H95.7525V12.0248ZM91.8448 21.5749C91.8448 18.0096 89.4664 15.403 86.4397 15.403C83.372 15.403 80.8019 18.0096 80.8019 21.5749C80.8019 25.1037 83.372 27.6739 86.4397 27.6739C89.4664 27.6739 91.8448 25.1037 91.8448 21.5749Z" fill="#4285F4"/>
<path d="M102.714 1.37012V31.0431H98.377V1.37012H102.714Z" fill="#34A853"/>
<path d="M119.614 24.8711L123.065 27.1719C121.951 28.8199 119.267 31.6594 114.629 31.6594C108.877 31.6594 104.581 27.213 104.581 21.534C104.581 15.5127 108.913 11.4087 114.131 11.4087C119.386 11.4087 121.956 15.5903 122.796 17.85L123.257 19.0004L109.721 24.6063C110.758 26.6378 112.369 27.674 114.629 27.674C116.893 27.674 118.463 26.5602 119.614 24.8711ZM108.991 21.2282L118.039 17.4711C117.541 16.2066 116.044 15.3255 114.282 15.3255C112.022 15.3255 108.877 17.3205 108.991 21.2282Z" fill="#EA4335"/>
<path d="M16.1099 18.9043V14.6085H30.5857C30.7272 15.3572 30.8003 16.2428 30.8003 17.2015C30.8003 20.4244 29.9192 24.4097 27.0797 27.2492C24.3179 30.1252 20.7891 31.6591 16.1144 31.6591C7.44992 31.6591 0.164062 24.6015 0.164062 15.937C0.164062 7.27245 7.44992 0.214844 16.1144 0.214844C20.9078 0.214844 24.3224 2.09565 26.888 4.5471L23.8568 7.57831C22.0171 5.85271 19.5245 4.51058 16.1099 4.51058C9.78267 4.51058 4.83413 9.60977 4.83413 15.937C4.83413 22.2641 9.78267 27.3633 16.1099 27.3633C20.2139 27.3633 22.5512 25.7153 24.0485 24.218C25.2628 23.0037 26.0617 21.269 26.3767 18.8997L16.1099 18.9043Z" fill="#4285F4"/>
</g>
</g>
</g>
<defs>
<clipPath id="clip0_3_7580">
<rect width="124.17" height="42" fill="white"/>
</clipPath>
<clipPath id="clip1_3_7580">
<rect width="124.17" height="42" fill="white"/>
</clipPath>
<clipPath id="clip2_3_7580">
<rect width="124.17" height="41.9987" fill="white" transform="translate(0 0.000488281)"/>
</clipPath>
</defs>
</svg>
