<svg width="207" height="32" viewBox="0 0 207 32" fill="none" xmlns="http://www.w3.org/2000/svg">
<g clip-path="url(#clip0_3_7174)">
<g clip-path="url(#clip1_3_7174)">
<g clip-path="url(#clip2_3_7174)">
<path d="M24.9694 8.469H26.1122L29.3691 5.21213L29.529 3.82938C27.6632 2.18261 25.4086 1.03865 22.9778 0.505579C20.5469 -0.0274972 18.0204 0.0679052 15.6368 0.782774C13.2531 1.49765 11.091 2.80837 9.3548 4.59116C7.61855 6.37394 6.36545 8.56992 5.71387 10.9716C6.07669 10.8229 6.47862 10.7988 6.85663 10.9031L13.3704 9.82889C13.3704 9.82889 13.7018 9.28036 13.8732 9.31464C15.2688 7.78181 17.1977 6.84044 19.2647 6.68324C21.3319 6.52603 23.3809 7.16488 24.9923 8.469H24.9694Z" fill="#EA4335"/>
<path d="M34.0086 10.9717C33.2599 8.2149 31.7229 5.73661 29.5861 3.84082L25.015 8.41187C25.9677 9.19029 26.7311 10.1749 27.2479 11.2913C27.7645 12.4078 28.0208 13.627 27.9976 14.8571V15.6685C28.5319 15.6685 29.061 15.7736 29.5545 15.9781C30.0481 16.1826 30.4965 16.4822 30.8743 16.86C31.2521 17.2377 31.5517 17.6862 31.7562 18.1798C31.9606 18.6734 32.0659 19.2024 32.0659 19.7367C32.0659 20.2709 31.9606 20.7999 31.7562 21.2935C31.5517 21.787 31.2521 22.2356 30.8743 22.6134C30.4965 22.9911 30.0481 23.2908 29.5545 23.4952C29.061 23.6997 28.5319 23.8049 27.9976 23.8049H19.8612L19.0498 24.6277V29.5073L19.8612 30.3187H27.9976C30.2698 30.3363 32.4872 29.6223 34.3219 28.2819C36.1567 26.9417 37.5114 25.0465 38.1855 22.8767C38.8597 20.7068 38.8175 18.3776 38.0653 16.2336C37.313 14.0896 35.8907 12.2446 34.0086 10.9717Z" fill="#4285F4"/>
<path d="M11.7133 30.2732H19.8498V23.7595H11.7133C11.1335 23.7594 10.5607 23.6347 10.0334 23.3938L8.89061 23.7481L5.61089 27.0049L5.3252 28.1477C7.16439 29.5365 9.40859 30.2833 11.7133 30.2732Z" fill="#34A853"/>
<path d="M11.7131 9.14338C9.50851 9.15654 7.36308 9.85795 5.57646 11.1496C3.78985 12.4413 2.45127 14.2587 1.74768 16.3481C1.04411 18.4374 1.01066 20.6944 1.65201 22.8037C2.29338 24.9129 3.57751 26.7692 5.32507 28.1133L10.0447 23.3937C9.44491 23.1226 8.91984 22.7102 8.51452 22.1917C8.10919 21.6732 7.83572 21.064 7.71754 20.4167C7.59938 19.7692 7.64005 19.1027 7.83608 18.4745C8.0321 17.8462 8.37762 17.2749 8.84299 16.8095C9.30837 16.3442 9.87969 15.9986 10.508 15.8026C11.1362 15.6065 11.8027 15.566 12.4501 15.6841C13.0976 15.8023 13.7066 16.0758 14.2251 16.4811C14.7437 16.8863 15.1561 17.4114 15.4271 18.0113L20.1467 13.2917C19.1561 11.9966 17.8793 10.9483 16.4163 10.2286C14.9533 9.50899 13.3436 9.13756 11.7131 9.14338Z" fill="#FBBC05"/>
<path d="M60.3257 25.7245C58.9249 25.7423 57.5348 25.4773 56.2388 24.9451C54.9428 24.4129 53.7676 23.6248 52.7834 22.6276C51.7684 21.6728 50.9628 20.5174 50.4179 19.2347C49.8729 17.9522 49.6006 16.5703 49.618 15.1768C49.6013 13.7834 49.8739 12.4017 50.4188 11.1192C50.9637 9.83666 51.7689 8.68121 52.7834 7.72597C53.7628 6.71851 54.9358 5.91969 56.232 5.37765C57.5283 4.83559 58.9207 4.56152 60.3257 4.57194C61.6644 4.5541 62.9932 4.80253 64.235 5.30278C65.4769 5.80305 66.6068 6.54516 67.5593 7.48599L65.5252 9.55439C64.1323 8.20815 62.2627 7.46855 60.3257 7.49741C59.3209 7.48507 58.3244 7.68189 57.3998 8.07535C56.4752 8.46882 55.6425 9.05034 54.9547 9.78294C54.2399 10.4921 53.6759 11.3386 53.2969 12.2715C52.9179 13.2044 52.7315 14.2043 52.7491 15.211C52.7408 16.2064 52.9316 17.1933 53.3103 18.1137C53.6892 19.0342 54.2482 19.8695 54.9547 20.5706C56.3699 21.9809 58.2795 22.7831 60.2773 22.8066C62.2751 22.8301 64.203 22.073 65.6509 20.6963C66.5473 19.7147 67.0973 18.4663 67.2165 17.1423H60.3599V14.2168H70.062C70.1574 14.8061 70.1956 15.403 70.1763 15.9996C70.2366 17.2342 70.046 18.4683 69.6159 19.6271C69.1857 20.786 68.525 21.8456 67.6736 22.7419C66.7272 23.7274 65.5836 24.5023 64.3175 25.0162C63.0515 25.5301 61.6913 25.7714 60.3257 25.7245ZM82.8838 23.7818C81.5817 25.0299 79.8478 25.7267 78.0442 25.7267C76.2406 25.7267 74.5066 25.0299 73.2046 23.7818C72.5565 23.1534 72.0462 22.3972 71.7059 21.5612C71.3655 20.7251 71.2027 19.8274 71.2276 18.925C71.2034 18.0228 71.3666 17.1253 71.7068 16.2894C72.0471 15.4533 72.5571 14.697 73.2046 14.0683C74.508 12.8228 76.2415 12.1278 78.0442 12.1278C79.847 12.1278 81.5805 12.8228 82.8838 14.0683C83.5314 14.697 84.0414 15.4533 84.3816 16.2894C84.7219 17.1253 84.8851 18.0228 84.8608 18.925C84.8843 19.8283 84.7196 20.7264 84.3774 21.5625C84.035 22.3987 83.5225 23.1544 82.8724 23.7818H82.8838ZM75.3416 21.8734C75.6879 22.2433 76.1065 22.5381 76.5714 22.7396C77.0363 22.9412 77.5375 23.0451 78.0442 23.0451C78.5509 23.0451 79.0522 22.9412 79.5171 22.7396C79.982 22.5381 80.4006 22.2433 80.7468 21.8734C81.1245 21.4831 81.4201 21.0211 81.6165 20.5147C81.8127 20.0084 81.9056 19.4678 81.8896 18.925C81.9065 18.3804 81.814 17.8379 81.6177 17.3295C81.4215 16.8212 81.1253 16.3574 80.7468 15.9653C80.396 15.5992 79.9745 15.308 79.5082 15.1089C79.0417 14.9099 78.5399 14.8073 78.0328 14.8073C77.5257 14.8073 77.0238 14.9099 76.5574 15.1089C76.091 15.308 75.6696 15.5992 75.3187 15.9653C74.9402 16.3574 74.6441 16.8212 74.4478 17.3295C74.2516 17.8379 74.1591 18.3804 74.1759 18.925C74.1615 19.4686 74.2563 20.0097 74.4544 20.5161C74.6527 21.0225 74.9505 21.484 75.3301 21.8734H75.3416ZM97.7625 23.7818C96.4605 25.0299 94.7267 25.7267 92.9229 25.7267C91.1193 25.7267 89.3854 25.0299 88.0833 23.7818C87.4353 23.1534 86.9249 22.3972 86.5846 21.5612C86.2443 20.7251 86.0815 19.8274 86.1064 18.925C86.0821 18.0228 86.2453 17.1253 86.5855 16.2894C86.9258 15.4533 87.4359 14.697 88.0833 14.0683C89.3854 12.8202 91.1193 12.1234 92.9229 12.1234C94.7267 12.1234 96.4605 12.8202 97.7625 14.0683C98.4101 14.697 98.9202 15.4533 99.2604 16.2894C99.6007 17.1253 99.7639 18.0228 99.7395 18.925C99.7646 19.8274 99.6017 20.7251 99.2614 21.5612C98.9211 22.3972 98.4106 23.1534 97.7625 23.7818ZM90.2203 21.8734C90.5667 22.2433 90.9853 22.5381 91.4502 22.7396C91.915 22.9412 92.4162 23.0451 92.9229 23.0451C93.4296 23.0451 93.931 22.9412 94.3959 22.7396C94.8607 22.5381 95.2793 22.2433 95.6256 21.8734C96.0033 21.4831 96.2989 21.0211 96.4952 20.5147C96.6914 20.0084 96.7843 19.4678 96.7683 18.925C96.7853 18.3804 96.6928 17.8379 96.4965 17.3295C96.3003 16.8212 96.0041 16.3574 95.6256 15.9653C95.2748 15.5992 94.8533 15.308 94.3869 15.1089C93.9205 14.9099 93.4187 14.8073 92.9115 14.8073C92.4045 14.8073 91.9026 14.9099 91.4362 15.1089C90.9697 15.308 90.5484 15.5992 90.1975 15.9653C89.819 16.3574 89.5229 16.8212 89.3266 17.3295C89.1304 17.8379 89.0379 18.3804 89.0547 18.925C89.0403 19.4686 89.135 20.0097 89.3332 20.5161C89.5315 21.0225 89.8293 21.484 90.2089 21.8734H90.2203ZM107.545 31.8268C106.175 31.8704 104.832 31.4428 103.739 30.6155C102.769 29.8863 102.005 28.9176 101.522 27.8043L104.128 26.7187C104.411 27.384 104.855 27.9688 105.419 28.4214C106.023 28.9082 106.781 29.1635 107.556 29.1413C108.048 29.1713 108.54 29.0948 109 28.9173C109.459 28.7399 109.875 28.4655 110.219 28.1128C110.907 27.2824 111.247 26.2174 111.167 25.1417V24.1589H111.064C110.629 24.6761 110.079 25.0847 109.458 25.3526C108.837 25.6204 108.162 25.7399 107.487 25.7016C106.629 25.7042 105.78 25.5288 104.993 25.1866C104.207 24.8443 103.499 24.3426 102.916 23.7132C102.284 23.0888 101.784 22.3425 101.449 21.5194C101.113 20.6964 100.947 19.8139 100.962 18.925C100.947 18.031 101.112 17.1431 101.447 16.3144C101.783 15.4858 102.283 14.7334 102.916 14.1026C103.498 13.4705 104.205 12.9663 104.992 12.622C105.779 12.2778 106.629 12.1009 107.487 12.1027C108.214 12.1015 108.933 12.2615 109.59 12.5713C110.159 12.8197 110.666 13.1904 111.076 13.6569H111.179V12.5713H114.013V24.7417C114.087 25.7045 113.965 26.6723 113.652 27.586C113.34 28.4997 112.844 29.34 112.196 30.0555C111.578 30.6465 110.848 31.1077 110.049 31.4119C109.251 31.7161 108.399 31.8572 107.545 31.8268ZM107.75 23.0504C108.238 23.0611 108.723 22.9643 109.169 22.7668C109.615 22.5693 110.013 22.2759 110.333 21.9076C111.038 21.0997 111.41 20.054 111.373 18.9822C111.415 17.8923 111.044 16.8268 110.333 15.9996C110.013 15.6306 109.616 15.3369 109.169 15.1393C108.723 14.9417 108.238 14.8453 107.75 14.8568C107.249 14.8465 106.751 14.9431 106.29 15.1401C105.829 15.3372 105.415 15.6301 105.076 15.9996C104.32 16.7971 103.91 17.8608 103.933 18.9593C103.922 19.4982 104.017 20.0341 104.213 20.5361C104.409 21.0381 104.702 21.4965 105.076 21.8848C105.414 22.2578 105.827 22.5547 106.288 22.7556C106.749 22.9566 107.247 23.0571 107.75 23.0504ZM119.053 5.33759V25.3131H116.07V5.33759H119.053ZM127.235 25.7245C126.341 25.7474 125.453 25.5857 124.625 25.2495C123.797 24.9132 123.048 24.4097 122.424 23.7703C121.79 23.1358 121.292 22.3789 120.96 21.5461C120.629 20.7131 120.469 19.8214 120.493 18.925C120.458 18.0265 120.606 17.1303 120.926 16.29C121.246 15.4497 121.732 14.6824 122.355 14.034C122.941 13.4152 123.651 12.9258 124.439 12.5971C125.226 12.2684 126.073 12.1079 126.926 12.1256C127.71 12.1174 128.487 12.269 129.212 12.5713C129.863 12.8343 130.457 13.2226 130.96 13.714C131.391 14.1307 131.775 14.5945 132.103 15.0968C132.368 15.5209 132.593 15.9685 132.777 16.4338L133.086 17.2109L123.944 20.9706C124.22 21.6058 124.682 22.1425 125.269 22.5096C125.858 22.8768 126.542 23.0574 127.235 23.0275C127.908 23.0294 128.571 22.8567 129.157 22.5262C129.744 22.1957 130.235 21.7189 130.583 21.142L132.869 22.6847C132.285 23.5192 131.538 24.2268 130.675 24.7645C129.646 25.4141 128.451 25.7478 127.235 25.7245ZM123.418 18.7193L129.498 16.1938C129.31 15.7485 128.975 15.3813 128.549 15.1539C128.071 14.8844 127.531 14.7464 126.983 14.7539C126.053 14.7781 125.17 15.1682 124.527 15.8396C124.14 16.2083 123.842 16.6577 123.65 17.1556C123.458 17.6534 123.379 18.1874 123.418 18.7193Z" fill="white"/>
<path d="M148.708 25.725C147.439 25.7469 146.18 25.5123 145.004 25.0352C143.829 24.5581 142.762 23.8483 141.867 22.9486C140.973 22.0488 140.27 20.9777 139.8 19.7993C139.329 18.621 139.103 17.3598 139.131 16.0915C139.103 14.8232 139.329 13.562 139.8 12.3837C140.27 11.2054 140.973 10.1342 141.867 9.23444C142.762 8.33471 143.829 7.62499 145.004 7.14787C146.18 6.67077 147.439 6.43613 148.708 6.45802C149.992 6.41788 151.269 6.66837 152.441 7.19078C153.615 7.71319 154.656 8.49401 155.484 9.47492L153.839 11.0748C153.23 10.309 152.449 9.69773 151.56 9.29067C150.67 8.88359 149.697 8.69223 148.719 8.73212C147.779 8.71092 146.843 8.88019 145.968 9.22975C145.095 9.5793 144.301 10.1019 143.634 10.7662C142.941 11.4633 142.4 12.2962 142.043 13.2126C141.688 14.1291 141.524 15.1093 141.565 16.0915C141.524 17.0738 141.688 18.0539 142.043 18.9703C142.4 19.8867 142.941 20.7197 143.634 21.4167C144.301 22.081 145.095 22.6037 145.968 22.9533C146.843 23.3029 147.779 23.4721 148.719 23.4509C149.812 23.4631 150.893 23.2291 151.881 22.7661C152.871 22.3032 153.743 21.6232 154.433 20.7768L156.078 22.4224C155.217 23.4527 154.136 24.2766 152.913 24.8336C151.595 25.4419 150.159 25.7464 148.708 25.725Z" fill="white"/>
<path d="M160.501 25.3135H158.136V6.85791H160.501V25.3135Z" fill="white"/>
<path d="M164.364 14.2056C165.604 12.9746 167.28 12.2837 169.026 12.2837C170.773 12.2837 172.45 12.9746 173.689 14.2056C174.295 14.8455 174.768 15.5991 175.083 16.4228C175.396 17.2465 175.544 18.1241 175.517 19.0052C175.544 19.8863 175.396 20.7639 175.083 21.5876C174.768 22.4113 174.295 23.1648 173.689 23.8048C172.45 25.0358 170.773 25.7267 169.026 25.7267C167.28 25.7267 165.604 25.0358 164.364 23.8048C163.758 23.1648 163.284 22.4113 162.971 21.5876C162.656 20.7639 162.509 19.8863 162.535 19.0052C162.509 18.1241 162.656 17.2465 162.971 16.4228C163.284 15.5991 163.758 14.8455 164.364 14.2056ZM166.123 22.3192C166.496 22.7131 166.945 23.0268 167.443 23.2413C167.942 23.4557 168.479 23.5663 169.02 23.5663C169.563 23.5663 170.099 23.4557 170.597 23.2413C171.096 23.0268 171.545 22.7131 171.917 22.3192C172.331 21.8756 172.652 21.354 172.862 20.785C173.071 20.2162 173.166 19.6111 173.14 19.0052C173.166 18.3993 173.071 17.7942 172.862 17.2253C172.652 16.6564 172.331 16.1348 171.917 15.6912C171.545 15.2973 171.096 14.9836 170.597 14.7691C170.099 14.5547 169.563 14.4441 169.02 14.4441C168.479 14.4441 167.942 14.5547 167.443 14.7691C166.945 14.9836 166.496 15.2973 166.123 15.6912C165.71 16.1348 165.389 16.6564 165.18 17.2253C164.969 17.7942 164.874 18.3993 164.901 19.0052C164.878 19.6099 164.975 20.2133 165.186 20.7802C165.399 21.3472 165.721 21.8664 166.135 22.3078L166.123 22.3192Z" fill="white"/>
<path d="M188.625 25.3134H186.339V23.5649H186.27C185.864 24.229 185.288 24.7732 184.602 25.1419C183.89 25.5544 183.082 25.7713 182.259 25.7705C181.592 25.8161 180.922 25.7104 180.301 25.461C179.679 25.2117 179.122 24.8253 178.671 24.3306C177.806 23.2356 177.371 21.8616 177.448 20.4681V12.6973H179.814V20.0338C179.814 22.3879 180.854 23.5649 182.934 23.5649C183.396 23.5793 183.855 23.4831 184.272 23.2844C184.69 23.0855 185.053 22.7899 185.333 22.4222C185.947 21.6451 186.274 20.6806 186.259 19.691V12.6973H188.625V25.3134Z" fill="white"/>
<path d="M196.658 25.7249C195.856 25.7275 195.063 25.5564 194.333 25.2229C193.603 24.8896 192.953 24.4019 192.43 23.7936C191.245 22.4851 190.611 20.77 190.659 19.0055C190.611 17.2409 191.245 15.5259 192.43 14.2173C192.953 13.609 193.603 13.1214 194.333 12.788C195.063 12.4546 195.856 12.2834 196.658 12.286C197.558 12.2719 198.446 12.4841 199.241 12.9031C199.94 13.2549 200.532 13.7876 200.955 14.4459H201.058L200.955 12.6974V6.85791H203.321V25.3135H201.035V23.5651H200.932C200.509 24.2233 199.917 24.7561 199.218 25.1078C198.43 25.5232 197.55 25.7353 196.658 25.7249ZM197.047 23.5651C197.582 23.5729 198.112 23.4668 198.602 23.254C199.094 23.0413 199.532 22.7267 199.892 22.3309C200.696 21.4159 201.107 20.2211 201.035 19.0055C201.107 17.7898 200.696 16.595 199.892 15.68C199.53 15.2821 199.089 14.9643 198.598 14.7469C198.105 14.5293 197.574 14.4169 197.035 14.4169C196.497 14.4169 195.966 14.5293 195.473 14.7469C194.982 14.9643 194.541 15.2821 194.178 15.68C193.78 16.1301 193.473 16.6545 193.277 17.2231C193.08 17.7919 192.999 18.3936 193.036 18.994C192.999 19.5945 193.08 20.1962 193.277 20.765C193.473 21.3336 193.78 21.858 194.178 22.3081C194.538 22.7109 194.981 23.0315 195.477 23.2484C195.971 23.4653 196.506 23.5733 197.047 23.5651Z" fill="white"/>
</g>
</g>
</g>
<defs>
<clipPath id="clip0_3_7174">
<rect width="206.84" height="32" fill="white"/>
</clipPath>
<clipPath id="clip1_3_7174">
<rect width="206.84" height="32" fill="white"/>
</clipPath>
<clipPath id="clip2_3_7174">
<rect width="206.84" height="31.9973" fill="white" transform="translate(0 0.0012207)"/>
</clipPath>
</defs>
</svg>
