<svg width="189" height="50" viewBox="0 0 189 50" fill="none" xmlns="http://www.w3.org/2000/svg">
<g clip-path="url(#clip0_3_6728)">
<g clip-path="url(#clip1_3_6728)">
<path d="M56.1582 31.445V17.9971H59.7167V23.0038H63.7304V17.9971H67.2889V31.445H63.7304V26.1072H59.7167V31.445H56.1582ZM73.1157 31.6932C71.9847 31.6932 71.164 31.3139 70.6536 30.5553C70.1433 29.7829 69.8882 28.7554 69.8882 27.4726V21.1006H73.4467V27.0175C73.4467 27.6796 73.5295 28.1208 73.695 28.3415C73.8742 28.5622 74.1363 28.6726 74.4813 28.6726C74.8121 28.6726 75.0881 28.6036 75.3088 28.4657C75.5295 28.3279 75.7502 28.0933 75.9709 27.7623V21.1006H79.5293V31.445H76.6328L76.3845 30.0796H76.3017C75.888 30.576 75.426 30.9692 74.9156 31.2588C74.4192 31.5485 73.8192 31.6932 73.1157 31.6932ZM85.6971 35.7069C84.911 35.7069 84.1868 35.6173 83.5247 35.438C82.8628 35.2724 82.3318 35.0034 81.9318 34.631C81.5455 34.2587 81.3525 33.7621 81.3525 33.1414C81.3525 32.3277 81.8351 31.6656 82.8007 31.1553V31.0725C82.5363 30.877 82.3056 30.6393 82.1179 30.3692C81.9386 30.0796 81.849 29.7208 81.849 29.2933C81.849 28.9347 81.9525 28.5829 82.1593 28.2382C82.38 27.8933 82.6628 27.5968 83.0076 27.3486V27.2658C82.6351 27.0176 82.3043 26.6658 82.0146 26.2105C81.7386 25.7416 81.6008 25.2106 81.6008 24.6176C81.6008 23.7624 81.8076 23.0591 82.2214 22.5073C82.649 21.9417 83.2007 21.5281 83.8765 21.266C84.5524 20.9902 85.2696 20.8521 86.0282 20.8521C86.635 20.8521 87.1867 20.9349 87.6832 21.1006H91.5315V23.6659H90.0419C90.0831 23.7901 90.1177 23.9487 90.1452 24.1417C90.1866 24.3348 90.2073 24.5348 90.2073 24.7416C90.2073 25.5555 90.0212 26.2176 89.6488 26.7279C89.2763 27.2244 88.773 27.59 88.1384 27.8244C87.5039 28.0589 86.8006 28.1761 86.0282 28.1761C85.6834 28.1761 85.2971 28.1279 84.8696 28.0312C84.704 28.1829 84.6214 28.3829 84.6214 28.6312C84.6214 28.8519 84.7317 29.0105 84.9524 29.1071C85.1868 29.2036 85.5592 29.2519 86.0696 29.2519H87.6213C88.9177 29.2519 89.9177 29.4657 90.6212 29.8932C91.3383 30.3071 91.6969 30.9897 91.6969 31.9414C91.6969 32.6863 91.4487 33.3414 90.9522 33.907C90.4694 34.4724 89.7798 34.9138 88.8831 35.231C87.9867 35.5483 86.9246 35.7069 85.6971 35.7069ZM86.0282 26.0658C86.3592 26.0658 86.6281 25.9486 86.835 25.7141C87.042 25.4797 87.1453 25.1141 87.1453 24.6176C87.1453 24.1348 87.042 23.7831 86.835 23.5624C86.6281 23.328 86.3592 23.2108 86.0282 23.2108C85.6971 23.2108 85.4282 23.328 85.2213 23.5624C85.0143 23.7831 84.911 24.1348 84.911 24.6176C84.911 25.1141 85.0143 25.4797 85.2213 25.7141C85.4282 25.9486 85.6971 26.0658 86.0282 26.0658ZM86.2764 33.5138C86.8557 33.5138 87.3385 33.4242 87.7246 33.2449C88.1109 33.0793 88.3039 32.8517 88.3039 32.5621C88.3039 32.2863 88.1799 32.1139 87.9316 32.0449C87.6971 31.976 87.3592 31.9414 86.9178 31.9414H86.111C85.6971 31.9414 85.3799 31.9277 85.1592 31.9C84.9524 31.8863 84.7731 31.8588 84.6214 31.8174C84.3731 32.0656 84.2489 32.3139 84.2489 32.5621C84.2489 32.8931 84.435 33.1345 84.8075 33.2863C85.1938 33.4381 85.6834 33.5138 86.2764 33.5138ZM96.9913 35.7069C96.205 35.7069 95.481 35.6173 94.8189 35.438C94.1568 35.2724 93.6258 35.0034 93.2258 34.631C92.8397 34.2587 92.6465 33.7621 92.6465 33.1414C92.6465 32.3277 93.1293 31.6656 94.0947 31.1553V31.0725C93.8303 30.877 93.5996 30.6393 93.4121 30.3692C93.2326 30.0796 93.143 29.7208 93.143 29.2933C93.143 28.9347 93.2465 28.5829 93.4533 28.2382C93.674 27.8933 93.9568 27.5968 94.3017 27.3486V27.2658C93.9293 27.0176 93.5982 26.6658 93.3086 26.2105C93.0326 25.7416 92.8947 25.2106 92.8947 24.6176C92.8947 23.7624 93.1018 23.0591 93.5154 22.5073C93.943 21.9417 94.4947 21.5281 95.1706 21.266C95.8464 20.9902 96.5636 20.8521 97.3221 20.8521C97.9292 20.8521 98.4809 20.9349 98.9774 21.1006H102.825V23.6659H101.336C101.377 23.7901 101.412 23.9487 101.439 24.1417C101.481 24.3348 101.501 24.5348 101.501 24.7416C101.501 25.5555 101.315 26.2176 100.943 26.7279C100.57 27.2244 100.067 27.59 99.4324 27.8244C98.7981 28.0589 98.0946 28.1761 97.3221 28.1761C96.9774 28.1761 96.5913 28.1279 96.1636 28.0312C95.9982 28.1829 95.9153 28.3829 95.9153 28.6312C95.9153 28.8519 96.0257 29.0105 96.2464 29.1071C96.481 29.2036 96.8532 29.2519 97.3635 29.2519H98.9153C100.212 29.2519 101.212 29.4657 101.915 29.8932C102.632 30.3071 102.991 30.9897 102.991 31.9414C102.991 32.6863 102.743 33.3414 102.246 33.907C101.763 34.4724 101.074 34.9138 100.177 35.231C99.2809 35.5483 98.2188 35.7069 96.9913 35.7069ZM97.3221 26.0658C97.6532 26.0658 97.9221 25.9486 98.1291 25.7141C98.336 25.4797 98.4395 25.1141 98.4395 24.6176C98.4395 24.1348 98.336 23.7831 98.1291 23.5624C97.9221 23.328 97.6532 23.2108 97.3221 23.2108C96.9913 23.2108 96.7222 23.328 96.5153 23.5624C96.3085 23.7831 96.205 24.1348 96.205 24.6176C96.205 25.1141 96.3085 25.4797 96.5153 25.7141C96.7222 25.9486 96.9913 26.0658 97.3221 26.0658ZM97.5706 33.5138C98.1498 33.5138 98.6324 33.4242 99.0188 33.2449C99.4049 33.0793 99.598 32.8517 99.598 32.5621C99.598 32.2863 99.4738 32.1139 99.2256 32.0449C98.9912 31.976 98.6532 31.9414 98.2118 31.9414H97.4049C96.9913 31.9414 96.6739 31.9277 96.4532 31.9C96.2464 31.8863 96.0671 31.8588 95.9153 31.8174C95.6671 32.0656 95.5429 32.3139 95.5429 32.5621C95.5429 32.8931 95.7292 33.1345 96.1017 33.2863C96.4878 33.4381 96.9774 33.5138 97.5706 33.5138ZM104.52 31.445V21.1006H108.078V31.445H104.52ZM106.299 19.8178C105.72 19.8178 105.251 19.6592 104.892 19.342C104.534 19.0109 104.354 18.5764 104.354 18.0385C104.354 17.5006 104.534 17.0729 104.892 16.7557C105.251 16.4247 105.72 16.2593 106.299 16.2593C106.878 16.2593 107.347 16.4247 107.706 16.7557C108.065 17.0729 108.244 17.5006 108.244 18.0385C108.244 18.5764 108.065 19.0109 107.706 19.342C107.347 19.6592 106.878 19.8178 106.299 19.8178ZM110.48 31.445V21.1006H113.377L113.625 22.3417H113.708C114.121 21.9417 114.59 21.597 115.114 21.3074C115.652 21.0039 116.273 20.8521 116.976 20.8521C118.121 20.8521 118.942 21.2384 119.438 22.0109C119.949 22.7694 120.204 23.7901 120.204 25.0727V31.445H116.645V25.5279C116.645 24.8659 116.563 24.4245 116.397 24.2038C116.232 23.9831 115.97 23.8727 115.611 23.8727C115.28 23.8727 115.004 23.9417 114.783 24.0798C114.563 24.2176 114.314 24.4108 114.039 24.659V31.445H110.48ZM126.287 35.7069C125.501 35.7069 124.777 35.6173 124.115 35.438C123.453 35.2724 122.922 35.0034 122.522 34.631C122.135 34.2587 121.942 33.7621 121.942 33.1414C121.942 32.3277 122.425 31.6656 123.391 31.1553V31.0725C123.126 30.877 122.896 30.6393 122.708 30.3692C122.529 30.0796 122.439 29.7208 122.439 29.2933C122.439 28.9347 122.542 28.5829 122.749 28.2382C122.97 27.8933 123.253 27.5968 123.597 27.3486V27.2658C123.225 27.0176 122.894 26.6658 122.604 26.2105C122.329 25.7416 122.191 25.2106 122.191 24.6176C122.191 23.7624 122.398 23.0591 122.811 22.5073C123.239 21.9417 123.791 21.5281 124.466 21.266C125.142 20.9902 125.86 20.8521 126.618 20.8521C127.225 20.8521 127.777 20.9349 128.273 21.1006H132.121V23.6659H130.632C130.673 23.7901 130.708 23.9487 130.735 24.1417C130.777 24.3348 130.797 24.5348 130.797 24.7416C130.797 25.5555 130.611 26.2176 130.239 26.7279C129.866 27.2244 129.363 27.59 128.728 27.8244C128.094 28.0589 127.391 28.1761 126.618 28.1761C126.273 28.1761 125.887 28.1279 125.46 28.0312C125.294 28.1829 125.211 28.3829 125.211 28.6312C125.211 28.8519 125.322 29.0105 125.542 29.1071C125.777 29.2036 126.149 29.2519 126.659 29.2519H128.211C129.508 29.2519 130.508 29.4657 131.211 29.8932C131.928 30.3071 132.287 30.9897 132.287 31.9414C132.287 32.6863 132.039 33.3414 131.542 33.907C131.059 34.4724 130.37 34.9138 129.473 35.231C128.577 35.5483 127.515 35.7069 126.287 35.7069ZM126.618 26.0658C126.949 26.0658 127.218 25.9486 127.425 25.7141C127.632 25.4797 127.735 25.1141 127.735 24.6176C127.735 24.1348 127.632 23.7831 127.425 23.5624C127.218 23.328 126.949 23.2108 126.618 23.2108C126.287 23.2108 126.018 23.328 125.811 23.5624C125.604 23.7831 125.501 24.1348 125.501 24.6176C125.501 25.1141 125.604 25.4797 125.811 25.7141C126.018 25.9486 126.287 26.0658 126.618 26.0658ZM126.866 33.5138C127.446 33.5138 127.928 33.4242 128.315 33.2449C128.701 33.0793 128.894 32.8517 128.894 32.5621C128.894 32.2863 128.77 32.1139 128.522 32.0449C128.287 31.976 127.949 31.9414 127.508 31.9414H126.701C126.287 31.9414 125.97 31.9277 125.749 31.9C125.542 31.8863 125.363 31.8588 125.211 31.8174C124.963 32.0656 124.839 32.3139 124.839 32.5621C124.839 32.8931 125.025 33.1345 125.397 33.2863C125.784 33.4381 126.273 33.5138 126.866 33.5138ZM138.247 31.445V17.9971H147.019V20.9763H141.806V23.5417H146.274V26.5209H141.806V31.445H138.247ZM150.911 31.6932C150.262 31.6932 149.704 31.5485 149.235 31.2588C148.787 30.9635 148.424 30.5573 148.18 30.0796C147.931 29.5968 147.807 29.0726 147.807 28.5072C147.807 27.4312 148.249 26.59 149.131 25.983C150.014 25.3623 151.449 24.9487 153.435 24.7416C153.352 24.0245 152.869 23.6659 151.987 23.6659C151.614 23.6659 151.221 23.7417 150.807 23.8934C150.394 24.0313 149.918 24.2452 149.38 24.5348L148.139 22.2177C148.87 21.7763 149.607 21.4384 150.352 21.2039C151.109 20.9697 151.897 20.8511 152.69 20.8521C154.042 20.8521 155.097 21.2384 155.855 22.0109C156.614 22.7694 156.993 23.9969 156.993 25.6934V31.445H154.097L153.849 30.4518H153.766C153.352 30.8243 152.911 31.1278 152.442 31.3621C151.987 31.5828 151.476 31.6932 150.911 31.6932ZM152.152 28.9622C152.442 28.9622 152.683 28.9001 152.876 28.7761C153.069 28.6382 153.256 28.4657 153.435 28.2589V26.8519C152.593 26.9761 152.007 27.1623 151.676 27.4105C151.359 27.6589 151.2 27.9279 151.2 28.2175C151.2 28.714 151.518 28.9622 152.152 28.9622ZM163.989 31.6932C163.01 31.6932 162.127 31.4793 161.341 31.0518C160.555 30.6243 159.927 30.0104 159.458 29.2105C159.003 28.3968 158.775 27.4175 158.775 26.2727C158.775 25.128 159.031 24.1555 159.541 23.3556C160.065 22.5417 160.748 21.9212 161.589 21.4935C162.43 21.066 163.341 20.8521 164.32 20.8521C164.941 20.8521 165.499 20.9488 165.996 21.1418C166.506 21.3349 166.954 21.597 167.34 21.9281L165.685 24.2038C165.465 24.0108 165.265 23.8798 165.085 23.8108C164.907 23.7419 164.718 23.7069 164.527 23.7073C163.865 23.7073 163.348 23.9417 162.975 24.4108C162.603 24.8659 162.417 25.4865 162.417 26.2727C162.417 27.059 162.61 27.6865 162.996 28.1554C163.382 28.6105 163.851 28.8382 164.403 28.8382C164.692 28.8382 164.975 28.7761 165.251 28.6519C165.534 28.5181 165.804 28.3587 166.058 28.1761L167.423 30.4932C166.913 30.9485 166.348 31.2657 165.727 31.445C165.106 31.6104 164.527 31.6932 163.989 31.6932ZM173.245 31.6932C172.238 31.6932 171.328 31.4793 170.514 31.0518C169.714 30.6243 169.08 30.0104 168.611 29.2105C168.142 28.3968 167.908 27.4175 167.908 26.2727C167.908 25.1555 168.142 24.1969 168.611 23.397C169.094 22.5831 169.714 21.9556 170.473 21.5142C171.232 21.0728 172.032 20.8521 172.873 20.8521C173.894 20.8521 174.735 21.0798 175.397 21.5349C176.073 21.9763 176.569 22.5763 176.886 23.3349C177.217 24.0934 177.383 24.9348 177.383 25.859C177.383 26.1623 177.362 26.459 177.321 26.7486C177.293 27.0244 177.266 27.2244 177.238 27.3486H171.342C171.507 27.9693 171.804 28.4036 172.231 28.6519C172.659 28.8864 173.163 29.0036 173.742 29.0036C174.404 29.0036 175.107 28.7968 175.852 28.3829L177.011 30.4932C176.459 30.8793 175.838 31.176 175.149 31.3828C174.459 31.5897 173.825 31.6932 173.245 31.6932ZM171.3 25.0313H174.362C174.362 24.6313 174.259 24.2866 174.052 23.9969C173.859 23.6934 173.494 23.5417 172.956 23.5417C172.569 23.5417 172.225 23.6591 171.921 23.8934C171.618 24.128 171.411 24.5073 171.3 25.0313Z" fill="white"/>
<path d="M48.5097 33.4159C48.4048 33.02 48.2349 32.6444 48.007 32.3042C48.0558 32.1249 48.0929 31.9429 48.1179 31.7591C48.2796 30.5919 47.8751 29.5234 47.1125 28.6965C46.6994 28.245 46.2566 27.9469 45.7877 27.7639C46.0955 26.447 46.2514 25.0992 46.2521 23.7467C46.2521 23.1291 46.2172 22.524 46.1586 21.928C46.1279 21.6303 46.091 21.3333 46.0478 21.0372C45.9135 20.1636 45.7143 19.3012 45.4518 18.4572C45.2797 17.9026 45.0807 17.3568 44.8555 16.8217C44.5178 16.0292 44.1235 15.262 43.6757 14.526C43.3817 14.0365 43.0618 13.5631 42.7171 13.1079C42.5482 12.8781 42.3722 12.6536 42.189 12.4349C41.6464 11.7754 41.057 11.1562 40.4248 10.582C40.215 10.389 39.9992 10.2027 39.7775 10.0233C39.5594 9.84127 39.3363 9.66511 39.1088 9.49496C38.6508 9.15411 38.1774 8.83431 37.6903 8.53659C34.9988 6.90188 31.8424 5.9646 28.4689 5.9646C18.6468 5.9646 10.6859 13.9257 10.6859 23.7474C10.6856 25.1169 10.8443 26.4817 11.1587 27.8145C10.7369 27.9977 10.3324 28.283 9.9576 28.6961C9.19512 29.5225 8.79045 30.5873 8.95236 31.7542C8.97677 31.9398 9.01388 32.1233 9.0631 32.3038C8.83531 32.6442 8.66545 33.02 8.56038 33.4159C8.32601 34.3067 8.40316 35.11 8.701 35.8137C8.37738 36.7337 8.45823 37.7134 8.8799 38.5651C9.18653 39.1872 9.62538 39.6682 10.1662 40.0985C10.8093 40.6096 11.6144 41.0442 12.5856 41.4607C13.7442 41.9549 15.1582 42.4191 15.8014 42.5894C17.4626 43.0197 19.0556 43.2923 20.6701 43.3054C22.9701 43.3269 24.9509 42.7859 26.3692 41.4018C27.0658 41.4871 27.767 41.5299 28.4689 41.5297C29.2105 41.5281 29.9513 41.4813 30.6872 41.3899C32.102 42.7828 34.0904 43.3287 36.3989 43.3066C38.0131 43.2939 39.6061 43.0212 41.263 42.5904C41.9105 42.4201 43.3241 41.9558 44.4832 41.4619C45.4545 41.0444 46.2594 40.61 46.907 40.0995C47.4437 39.6694 47.8822 39.1882 48.189 38.5661C48.615 37.7144 48.6917 36.7347 48.3722 35.8146C48.6673 35.1109 48.7439 34.3059 48.5097 33.4159ZM46.8615 35.7541C47.1879 36.3734 47.2087 37.0732 46.9207 37.7249C46.484 38.7128 45.3992 39.4907 43.2925 40.326C41.9825 40.8457 40.7828 41.1777 40.7722 41.1809C39.0395 41.6303 37.4723 41.8584 36.1157 41.8584C33.8693 41.8584 32.1979 41.2387 31.1378 40.0145C29.3451 40.3198 27.5144 40.3301 25.7184 40.0452C24.6571 41.249 22.9949 41.8584 20.7674 41.8584C19.4106 41.8584 17.8437 41.6303 16.1109 41.1809C16.1002 41.1777 14.9012 40.8457 13.5907 40.326C11.4839 39.4907 10.399 38.7132 9.96248 37.7249C9.67441 37.0732 9.6953 36.3734 10.0217 35.7541C10.0519 35.6967 10.0842 35.6404 10.1187 35.5863C9.92311 35.2926 9.79192 34.9606 9.73374 34.6125C9.67558 34.2645 9.69177 33.9079 9.78124 33.5665C9.91092 33.0739 10.1789 32.6642 10.5425 32.3698C10.3674 32.0819 10.2525 31.7616 10.2047 31.4281C10.1 30.7027 10.3406 29.9783 10.8824 29.3879C11.304 28.9283 11.9003 28.6754 12.5606 28.6754H12.5782C12.0804 27.08 11.828 25.4181 11.8296 23.7469C11.8296 14.6315 19.2194 7.24151 28.3357 7.24151C37.4522 7.24151 44.8418 14.6309 44.8418 23.7469C44.843 25.4226 44.5889 27.0887 44.0881 28.6879C44.1678 28.6801 44.2459 28.676 44.3225 28.676C44.9826 28.676 45.5791 28.9287 46.0008 29.3883C46.5422 29.9783 46.7834 30.7033 46.6785 31.4284C46.6306 31.762 46.5158 32.0825 46.3406 32.3704C46.7043 32.6645 46.9722 33.0743 47.1019 33.5671C47.1912 33.9084 47.2074 34.2649 47.1492 34.6131C47.091 34.9611 46.9599 35.293 46.7644 35.5869C46.799 35.6404 46.8316 35.6967 46.8615 35.7541Z" fill="white"/>
<path d="M46.7642 35.5869C46.9597 35.293 47.0908 34.9611 47.149 34.6131C47.2072 34.2649 47.1909 33.9084 47.1017 33.567C46.972 33.0745 46.704 32.6647 46.3404 32.3704C46.5154 32.0825 46.6304 31.7622 46.6783 31.4286C46.7829 30.7033 46.5423 29.9789 46.0005 29.3885C45.5789 28.9289 44.9824 28.676 44.3223 28.676C44.2455 28.676 44.1676 28.6799 44.0879 28.6879C44.5881 27.0887 44.8418 25.4226 44.8402 23.747C44.8402 14.6319 37.4504 7.2417 28.3349 7.2417C19.2194 7.2417 11.8288 14.6311 11.8288 23.747C11.8272 25.4183 12.0796 27.0801 12.5774 28.6756H12.5598C11.8997 28.6756 11.3034 28.9285 10.8817 29.3881C10.3403 29.9781 10.0993 30.7029 10.204 31.4282C10.2518 31.7618 10.3668 32.0821 10.5419 32.37C10.1782 32.6643 9.91028 33.0741 9.78079 33.5668C9.69138 33.9082 9.67525 34.2649 9.73349 34.6131C9.79173 34.9611 9.923 35.2932 10.1187 35.5869C10.0837 35.641 10.0517 35.6972 10.0216 35.7547C9.69544 36.374 9.67435 37.0738 9.96243 37.7255C10.3989 38.7132 11.4839 39.4915 13.5906 40.3266C14.9006 40.8463 16.1003 41.1783 16.1109 41.1814C17.8436 41.6308 19.4106 41.8592 20.7672 41.8592C22.9948 41.8592 24.6569 41.2498 25.7184 40.0457C27.5144 40.3307 29.345 40.3203 31.1377 40.0151C32.1977 41.2393 33.8693 41.8592 36.1157 41.8592C37.4723 41.8592 39.0394 41.6308 40.7722 41.1814C40.7827 41.1783 41.9819 40.8463 43.2924 40.3266C45.3992 39.4915 46.4841 38.7132 46.9206 37.7255C47.2087 37.0738 47.1878 36.374 46.8615 35.7547C46.8316 35.6967 46.7988 35.6406 46.7642 35.5869ZM24.9588 38.161C24.8674 38.321 24.7696 38.477 24.6653 38.6288C24.3909 39.0305 24.03 39.3374 23.6112 39.5657C22.8103 40.0022 21.7968 40.1549 20.767 40.1549C19.1405 40.1549 17.4729 39.7743 16.5382 39.5317C16.4923 39.5198 10.8091 37.9146 11.5286 36.5482C11.6497 36.3185 11.8491 36.2267 12.0999 36.2267C13.1129 36.2267 14.9576 37.7353 15.7505 37.7353C15.9275 37.7353 16.0525 37.6597 16.1034 37.4759C16.4413 36.264 10.9683 35.7547 11.4292 34C11.5106 33.6895 11.7311 33.5635 12.0415 33.5635C13.3807 33.5633 16.3868 35.9187 17.0155 35.9187C17.0638 35.9187 17.0983 35.9047 17.1171 35.875L17.1253 35.8615C17.4202 35.3742 17.2511 35.0199 15.2293 33.7817L15.0351 33.6635C12.8106 32.3169 11.2489 31.5068 12.1372 30.54C12.2393 30.4283 12.384 30.3789 12.56 30.3789C12.7688 30.3789 13.0213 30.4488 13.2994 30.5658C14.4744 31.0613 16.1029 32.4126 16.7831 33.002C16.9837 33.1766 17.1019 33.2833 17.1019 33.2833C17.1019 33.2833 17.9632 34.1789 18.484 34.1789C18.604 34.1789 18.7055 34.1319 18.7745 34.0149C19.144 33.3922 15.3443 30.513 15.13 29.3252C14.9849 28.5201 15.232 28.1125 15.6892 28.1125C15.9064 28.1125 16.1716 28.2049 16.4644 28.3906C17.3725 28.9672 19.126 31.9804 19.768 33.1524C19.9832 33.5454 20.3506 33.7114 20.6816 33.7114C21.3384 33.7114 21.8519 33.0585 20.7418 32.2288C19.0733 30.9802 19.6588 28.9396 20.4551 28.8141C20.489 28.8088 20.5234 28.8061 20.5576 28.8059C21.2818 28.8059 21.6013 30.0539 21.6013 30.0539C21.6013 30.0539 22.5374 32.405 24.1458 34.0119C25.6053 35.4707 25.809 36.6679 24.9588 38.161ZM30.1596 38.4364L30.0762 38.4464L29.9339 38.4628C29.8591 38.4704 29.7843 38.4778 29.7091 38.4849L29.6356 38.4915L29.5688 38.4972L29.4737 38.5048C29.4388 38.5073 29.4038 38.51 29.3688 38.5122L29.2642 38.5192L29.2411 38.5206L29.1587 38.5255L29.1237 38.5272L29.0261 38.5321L28.9126 38.5368L28.8095 38.5403L28.7407 38.5423H28.706C28.6845 38.5423 28.6632 38.5434 28.6417 38.5436H28.6075C28.5861 38.5436 28.5648 38.5436 28.5433 38.5448L28.456 38.5458H28.3337C28.2378 38.5458 28.1423 38.5448 28.0468 38.5431L27.9695 38.5413C27.9476 38.5413 27.9255 38.5401 27.9037 38.5395L27.8218 38.537L27.7199 38.5331L27.6283 38.5292L27.6045 38.5282L27.5171 38.5235C27.4929 38.5222 27.4687 38.521 27.4447 38.5194L27.3882 38.5161C27.3173 38.5116 27.2465 38.5065 27.1756 38.5011L27.1013 38.4952L27.0076 38.4872L26.898 38.477C26.8369 38.4714 26.7758 38.4651 26.7146 38.4583H26.7117C27.6043 36.4671 27.1529 34.6076 25.3492 32.8053C24.1665 31.6241 23.3794 29.8795 23.2163 29.4965C22.8858 28.3627 22.0111 27.1024 20.5586 27.1024C20.4357 27.1026 20.3133 27.1124 20.192 27.1315C19.5555 27.2315 18.9993 27.5979 18.6024 28.149C18.1737 27.6157 17.7567 27.1917 17.3798 26.952C16.8114 26.5919 16.2445 26.4091 15.6917 26.4091C15.0023 26.4091 14.3857 26.6923 13.9561 27.2059L13.9453 27.219L13.9211 27.1172L13.9201 27.1129C13.8384 26.7633 13.7698 26.4106 13.7143 26.0559C13.7143 26.0534 13.7143 26.0511 13.7131 26.0487L13.701 25.9685C13.6944 25.9251 13.6881 25.8815 13.6818 25.8382C13.6768 25.8021 13.6717 25.7659 13.667 25.73C13.6623 25.694 13.6572 25.6579 13.6529 25.6218C13.6482 25.5855 13.644 25.5493 13.6397 25.5132C13.6355 25.4788 13.6316 25.4444 13.6277 25.4101L13.6266 25.4013C13.609 25.2427 13.5939 25.0839 13.5813 24.9249L13.5744 24.8329C13.5725 24.8077 13.5707 24.7824 13.5691 24.7568C13.5691 24.7509 13.5684 24.7449 13.568 24.7394L13.5616 24.6374C13.5592 24.6005 13.5574 24.5636 13.5555 24.5267C13.5535 24.49 13.5516 24.4531 13.55 24.416L13.5461 24.3193L13.5449 24.29L13.542 24.2005L13.5399 24.1248C13.5399 24.0945 13.5385 24.064 13.5379 24.0337L13.5363 23.9382C13.5359 23.9064 13.5363 23.8748 13.5356 23.8429C13.5346 23.8109 13.5356 23.7791 13.5356 23.747C13.5356 15.5731 20.1625 8.94612 28.3372 8.94612C36.512 8.94612 43.1387 15.5727 43.1387 23.747V23.9382C43.1387 23.9701 43.1379 24.0021 43.1372 24.0337C43.1372 24.0603 43.1362 24.0863 43.1354 24.1128C43.1354 24.1365 43.1344 24.1599 43.1335 24.1828C43.1335 24.2126 43.1317 24.2423 43.1307 24.2722V24.2748C43.1282 24.3396 43.1254 24.4044 43.1227 24.4693L43.1215 24.4908L43.1165 24.5876L43.1118 24.6644C43.1008 24.8462 43.0866 25.0281 43.0692 25.2095V25.212C43.0661 25.246 43.0626 25.2802 43.0588 25.3142C43.0503 25.3933 43.0415 25.4724 43.0327 25.5515L43.0227 25.631L43.0104 25.7243C43.0061 25.7585 43.0014 25.7925 42.9965 25.8265C42.9913 25.8645 42.9856 25.9024 42.9801 25.9403L42.9665 26.0298L42.9504 26.1313C42.945 26.1651 42.9395 26.1987 42.9331 26.2325C42.9264 26.2661 42.9213 26.2997 42.9155 26.3335C42.9038 26.4007 42.8917 26.4677 42.8786 26.5346C42.8526 26.668 42.8255 26.801 42.7967 26.9338C42.7895 26.9669 42.7821 27.0001 42.7745 27.0331C42.3579 26.6282 41.8063 26.4077 41.1978 26.4077C40.6456 26.4077 40.0781 26.5903 39.5099 26.9506C39.1328 27.1901 38.7162 27.6143 38.2871 28.1477C37.8897 27.5963 37.3334 27.2301 36.6977 27.1299C36.5764 27.111 36.4538 27.1012 36.3309 27.101C34.878 27.101 34.0039 28.3613 33.6732 29.4951C33.5093 29.8781 32.7223 31.6226 31.5381 32.8057C29.7358 34.6022 29.281 36.4535 30.1596 38.4364ZM45.4404 34.4506L45.4346 34.468C45.4305 34.4791 45.4263 34.4903 45.4219 34.5012C45.4148 34.5178 45.4074 34.534 45.3996 34.5502C45.3806 34.5889 45.3592 34.6264 45.3355 34.6623C45.3029 34.711 45.2672 34.7574 45.2283 34.8012C45.2193 34.8113 45.2107 34.8213 45.2006 34.8313C45.1869 34.8463 45.1723 34.8609 45.1578 34.8756C44.8947 35.1363 44.494 35.3646 44.0408 35.5744C43.9895 35.5976 43.9375 35.6209 43.8848 35.6441L43.8325 35.6674C43.7975 35.6828 43.7627 35.6982 43.726 35.7133C43.6903 35.7285 43.6543 35.7435 43.6184 35.7584L43.5094 35.8035C43.2545 35.9084 42.9934 36.0082 42.7385 36.107L42.6298 36.1492L42.5219 36.1914C42.4505 36.2193 42.3798 36.2472 42.31 36.2752L42.2063 36.317L42.1046 36.3587L42.0544 36.3796C42.0212 36.3937 41.9884 36.4074 41.956 36.4214C41.2064 36.7429 40.6673 37.0701 40.7806 37.4761C40.7837 37.4876 40.7872 37.4986 40.7911 37.5091C40.8013 37.5392 40.8152 37.5677 40.8324 37.5943C40.8425 37.6103 40.8542 37.6253 40.8673 37.639C41.0005 37.7773 41.2429 37.7554 41.5485 37.6456C41.5733 37.6366 41.5987 37.6271 41.6243 37.6169C41.6419 37.6103 41.6593 37.6032 41.6769 37.5962L41.7032 37.5851C41.7731 37.5554 41.8472 37.5224 41.9229 37.4863C41.9419 37.4775 41.961 37.4689 41.9802 37.4587C42.3538 37.2761 42.7774 37.0298 43.1977 36.8058C43.2622 36.7708 43.3268 36.7374 43.3911 36.7042C43.4961 36.6498 43.6022 36.5972 43.7092 36.547C44.1073 36.3599 44.4813 36.2271 44.7822 36.2271C44.9232 36.2271 45.048 36.256 45.1517 36.3224L45.1691 36.3339C45.2217 36.3711 45.2674 36.4166 45.3047 36.4689C45.3133 36.4812 45.3223 36.4939 45.3299 36.507C45.3381 36.5205 45.3459 36.5343 45.3533 36.5484C45.5019 36.8304 45.3775 37.1228 45.0865 37.4093C44.807 37.6843 44.3723 37.954 43.878 38.2038C43.8414 38.2224 43.8045 38.2409 43.7674 38.2589C42.2966 38.9811 40.3708 39.5251 40.3439 39.5319C39.8306 39.6649 39.0967 39.8397 38.2699 39.9704L38.1475 39.9893L38.1276 39.9922C37.9401 40.0204 37.752 40.0452 37.5635 40.0666L37.5461 40.0684C37.2034 40.1075 36.8518 40.1358 36.4997 40.1477H36.4944C36.3678 40.1524 36.2415 40.1545 36.1149 40.1545H35.9692C35.7763 40.1518 35.5835 40.1432 35.3911 40.1284C35.3866 40.1284 35.3819 40.1284 35.3773 40.1274C35.3085 40.1221 35.2396 40.1157 35.171 40.108C35.053 40.0953 34.9353 40.0797 34.8179 40.0614C34.7722 40.0537 34.7234 40.0457 34.6763 40.0375C34.6548 40.0336 34.6335 40.0297 34.6122 40.0254L34.6072 40.0245C34.5394 40.0116 34.472 39.9973 34.4048 39.9819C34.366 39.9731 34.3269 39.9643 34.2884 39.9539L34.2654 39.9479C34.2462 39.9432 34.2275 39.9381 34.2087 39.9331L34.1984 39.9303L34.138 39.9129C34.1162 39.9067 34.0945 39.9002 34.0726 39.8938L34.0648 39.8914L34.008 39.8741C33.9865 39.8674 33.9652 39.8604 33.9439 39.8536C33.9263 39.8477 33.9089 39.8416 33.8914 39.836L33.8529 39.8225C33.8158 39.8096 33.7791 39.7959 33.7423 39.7819L33.7076 39.7684L33.6789 39.7569C33.6236 39.7346 33.5685 39.7114 33.514 39.687L33.4777 39.6696L33.4716 39.6668C33.4588 39.6608 33.4461 39.6547 33.4332 39.6493C33.408 39.6372 33.383 39.6247 33.3582 39.612L33.3508 39.6083L33.3148 39.5893C33.251 39.5561 33.1883 39.5206 33.1269 39.4827L33.0933 39.4622C33.076 39.4516 33.0601 39.4409 33.0435 39.4301L32.9998 39.401C32.984 39.3905 32.9682 39.3797 32.9527 39.3686L32.9246 39.3487C32.8949 39.3274 32.8658 39.3057 32.8371 39.2833C32.8219 39.2715 32.8068 39.2594 32.7918 39.2483C32.7584 39.2215 32.7258 39.194 32.6935 39.1657L32.6922 39.1645C32.6607 39.1374 32.6301 39.1092 32.6002 39.0805L32.5986 39.0786C32.583 39.0637 32.5678 39.0489 32.5525 39.0335C32.5375 39.018 32.5223 39.0028 32.5076 38.9874C32.4928 38.9718 32.4779 38.9559 32.4635 38.9397C32.4494 38.9245 32.4357 38.9091 32.4221 38.8934L32.4174 38.8882C32.3469 38.8063 32.2809 38.7206 32.2197 38.6313L32.1955 38.5956C32.1795 38.572 32.1637 38.5481 32.1481 38.5243L32.102 38.4534C32.0793 38.4188 32.0572 38.3839 32.0358 38.3487C32.0203 38.3237 32.0051 38.2987 31.9901 38.2735C31.9774 38.252 31.9647 38.2308 31.9526 38.2097C31.9457 38.1981 31.9393 38.1864 31.9328 38.1747C31.9264 38.1626 31.9188 38.1503 31.9119 38.138L31.901 38.1187C31.8973 38.1122 31.8961 38.1103 31.8942 38.106C31.8809 38.0827 31.868 38.0591 31.8555 38.0351C31.8498 38.0247 31.8442 38.0142 31.8381 38.0038L31.8205 37.9702L31.8031 37.9368L31.7696 37.8691C31.7641 37.8579 31.7588 37.8468 31.7535 37.8357C31.742 37.8116 31.7311 37.788 31.7201 37.7644C31.7158 37.7548 31.7114 37.7452 31.7074 37.7357C31.6924 37.703 31.6782 37.67 31.6647 37.6366C31.6555 37.6146 31.6471 37.5927 31.6381 37.5708C31.6129 37.5064 31.5893 37.4413 31.5676 37.3755C31.5612 37.356 31.5547 37.3366 31.5491 37.3171C31.535 37.2728 31.5223 37.2281 31.511 37.1829C31.4971 37.1304 31.4848 37.0773 31.4744 37.024C31.4678 36.9925 31.4619 36.9609 31.4571 36.929C31.4518 36.8976 31.4473 36.8662 31.4436 36.8349C31.4356 36.7726 31.4299 36.7101 31.4266 36.6474C31.4266 36.6371 31.4256 36.6265 31.4254 36.6162C31.4244 36.5955 31.4239 36.5748 31.4237 36.5541C31.4127 35.7197 31.8352 34.9172 32.7381 34.0147C34.3462 32.4079 35.2825 30.0566 35.2825 30.0566C35.2825 30.0566 35.3077 29.958 35.3603 29.8162C35.3778 29.7691 35.3962 29.7222 35.4155 29.676C35.4376 29.6236 35.4612 29.5719 35.4866 29.5211L35.494 29.5062C35.5267 29.4414 35.562 29.3783 35.6005 29.3168C35.6093 29.3025 35.6179 29.2883 35.628 29.2742C35.6565 29.2316 35.6868 29.1904 35.7186 29.1504C35.7433 29.1197 35.7694 29.09 35.797 29.0619C35.8903 28.9658 35.9968 28.8873 36.1173 28.8453L36.1325 28.8404C36.1427 28.8371 36.1526 28.834 36.163 28.8311C36.1751 28.8279 36.1872 28.825 36.1993 28.8225L36.2048 28.8215C36.2304 28.8164 36.2559 28.8129 36.2819 28.8111H36.2843C36.2977 28.8111 36.3112 28.8098 36.3251 28.8098C36.3596 28.81 36.394 28.8127 36.4282 28.818C36.5731 28.8408 36.7112 28.9271 36.8299 29.0603L36.846 29.0791C36.8846 29.1244 36.9198 29.1728 36.951 29.2236C36.9745 29.2613 36.9965 29.301 37.0174 29.3426C37.0258 29.3601 37.0338 29.3762 37.0418 29.3933C37.0458 29.4021 37.0497 29.4107 37.0534 29.4197C37.0612 29.4371 37.0684 29.4547 37.0756 29.473C37.1165 29.5777 37.1481 29.6857 37.1704 29.7959C37.194 29.9148 37.2077 30.0355 37.2116 30.1568C37.2129 30.2101 37.2129 30.264 37.2116 30.3187C37.2106 30.3394 37.2096 30.3603 37.2081 30.3812C37.192 30.6134 37.1415 30.8419 37.0579 31.0593C37.0495 31.0808 37.0403 31.1027 37.0317 31.1245C36.9897 31.2249 36.9409 31.3222 36.8858 31.4159C36.8544 31.4694 36.8204 31.5226 36.784 31.5753L36.7618 31.6069C36.6756 31.7273 36.5796 31.8401 36.4745 31.9444C36.371 32.0481 36.26 32.144 36.1427 32.2317C36.0249 32.3186 35.9145 32.4151 35.8126 32.52C35.519 32.8282 35.4507 33.0999 35.5167 33.3059C35.5245 33.3292 35.5337 33.352 35.5442 33.3741C35.5687 33.4219 35.6003 33.4659 35.6382 33.5042L35.6485 33.5145C35.6593 33.5249 35.6706 33.5348 35.6821 33.5444L35.6938 33.554C35.7224 33.5758 35.7524 33.5954 35.7839 33.6124C35.7929 33.6172 35.8013 33.6221 35.8116 33.6268C35.8548 33.6483 35.8999 33.6655 35.9464 33.6786L35.9593 33.6819L35.9766 33.6866L35.9919 33.6903L36.0081 33.6938L36.0243 33.6971L36.0397 33.6997C36.0513 33.7018 36.063 33.7036 36.0745 33.7051L36.0858 33.7067L36.1059 33.7088L36.1184 33.71L36.1391 33.7116H36.1511L36.1725 33.7125H36.2403L36.2596 33.7116L36.2819 33.7102L36.3091 33.7077L36.3344 33.7045C36.3401 33.7045 36.346 33.703 36.3518 33.702C36.4413 33.6889 36.5284 33.6637 36.6108 33.627C36.6284 33.6196 36.6458 33.6114 36.6618 33.6028C36.6962 33.5856 36.7296 33.5663 36.7616 33.545C36.8063 33.5157 36.8485 33.4827 36.8881 33.4467L36.9157 33.4206C36.92 33.4163 36.9245 33.4122 36.9286 33.4077C36.9555 33.3807 36.9809 33.3522 37.0045 33.3223C37.0463 33.2696 37.0834 33.2135 37.1157 33.1546C37.4979 32.4597 37.8985 31.7749 38.317 31.1013L38.3744 31.0093L38.4324 30.9171C38.4615 30.8706 38.4906 30.8245 38.5197 30.779L38.5492 30.7331L38.608 30.6415C38.6869 30.5195 38.766 30.3988 38.8457 30.2793L38.9053 30.1902C39.0248 30.0132 39.1441 29.841 39.2621 29.6771L39.3211 29.5963C39.4494 29.4189 39.5832 29.2457 39.722 29.0766L39.7773 29.0105C39.7863 28.9994 39.7947 28.9887 39.8047 28.9779L39.8588 28.9152C39.8677 28.9049 39.8763 28.8947 39.8857 28.8848L39.938 28.8256L39.9644 28.7971C39.9898 28.7695 40.0156 28.7424 40.0418 28.7154C40.0593 28.6981 40.0755 28.6805 40.0925 28.6643C40.1916 28.5629 40.3007 28.4721 40.4185 28.3934L40.4456 28.376L40.4732 28.3584C40.4908 28.3475 40.5085 28.3369 40.5267 28.327C40.9884 28.0651 41.3708 28.0457 41.5907 28.2656C41.7241 28.399 41.7978 28.6199 41.7938 28.9271C41.7938 28.9408 41.7938 28.9543 41.7927 28.9684V28.9836C41.7927 28.9975 41.7915 29.0117 41.7905 29.026C41.7905 29.0434 41.7884 29.0609 41.7866 29.0783C41.7849 29.0959 41.7841 29.1092 41.7823 29.1246C41.7823 29.1291 41.7813 29.1336 41.7808 29.1381C41.7794 29.1518 41.7776 29.1656 41.7759 29.1793C41.7759 29.1836 41.7759 29.1877 41.7741 29.192C41.7722 29.2105 41.7694 29.2291 41.7661 29.2474C41.764 29.2644 41.7612 29.2814 41.7579 29.2984C41.7565 29.3082 41.7546 29.3178 41.753 29.3275C41.7479 29.3553 41.7413 29.3828 41.7333 29.4097C41.7183 29.4601 41.6999 29.5096 41.6782 29.5576C41.6688 29.5785 41.6589 29.5994 41.6487 29.6199C41.6276 29.6623 41.6038 29.7056 41.5776 29.7506C41.5646 29.7726 41.5511 29.7955 41.5366 29.8183L41.5148 29.8531C41.4925 29.8881 41.4692 29.9234 41.445 29.9591C41.4208 29.9949 41.3948 30.0314 41.3669 30.0683C41.3308 30.1175 41.2927 30.1677 41.2525 30.2185L41.222 30.257C41.1359 30.3642 41.0476 30.4697 40.9573 30.5734L40.8857 30.6544L40.8491 30.6955C40.7993 30.7511 40.7493 30.8064 40.699 30.8613L40.6603 30.9031C40.6347 30.9308 40.6079 30.9589 40.5824 30.9868C40.5562 31.0152 40.5296 31.0433 40.5031 31.0714L40.4226 31.1562L40.3412 31.2411C40.314 31.2695 40.2867 31.2982 40.2591 31.3265L40.0933 31.4974C39.3013 32.3097 38.4668 33.1192 38.1844 33.6239C38.1656 33.6569 38.1486 33.6907 38.1332 33.7252C38.0932 33.817 38.0764 33.8955 38.0877 33.959C38.0914 33.9799 38.0988 34 38.1096 34.0182C38.1256 34.0457 38.1449 34.0711 38.1672 34.0938C38.1776 34.1039 38.1883 34.1135 38.2 34.1221C38.258 34.1635 38.3283 34.1848 38.3996 34.1826H38.4219L38.4447 34.1811L38.4678 34.1783L38.4867 34.1756C38.4893 34.1754 38.4918 34.1748 38.4943 34.1742L38.5117 34.1709L38.5164 34.1698L38.5355 34.1657L38.5424 34.1639L38.5629 34.1586L38.5873 34.1514C38.6033 34.1465 38.6193 34.141 38.6357 34.135C38.6711 34.1225 38.7057 34.108 38.7395 34.0918C38.748 34.0877 38.7568 34.0838 38.7652 34.0793L38.7912 34.0664C38.8252 34.0493 38.859 34.0307 38.893 34.0106C38.9201 33.9946 38.9471 33.9782 38.974 33.9608L39.0002 33.9434C39.0088 33.9379 39.0176 33.9323 39.0262 33.9258L39.0521 33.9084L39.0658 33.8989L39.1033 33.8727C39.1383 33.8485 39.1709 33.8237 39.2041 33.7985L39.207 33.7963L39.2594 33.7557C39.331 33.6991 39.3992 33.642 39.4607 33.5883L39.5017 33.5522L39.5056 33.5487L39.5269 33.5297C39.5773 33.4846 39.6222 33.4424 39.6597 33.4075L39.675 33.3926L39.7119 33.3577L39.7339 33.3362L39.7416 33.3284L39.7437 33.3262C39.7625 33.3075 39.7625 33.3075 39.7812 33.2885L39.7828 33.287L39.7898 33.2807C39.792 33.2784 39.7949 33.276 39.7982 33.2731L39.8009 33.2706L39.8084 33.2639L39.848 33.229L39.8703 33.2088C39.8812 33.1995 39.8931 33.1887 39.9052 33.1772L39.932 33.1538C39.9367 33.1499 39.9414 33.1454 39.9462 33.1411L39.9742 33.1167L40.0154 33.0807L40.0371 33.0618C40.122 32.9878 40.2255 32.8985 40.3441 32.7979L40.3927 32.7569L40.4732 32.6895L40.5552 32.6208C40.6626 32.5317 40.7783 32.437 40.9005 32.3386L40.9808 32.2741C41.0491 32.2198 41.1195 32.1642 41.1905 32.1083C41.2191 32.0858 41.2482 32.0634 41.2778 32.0411C41.3507 31.9849 41.4239 31.9288 41.4974 31.8735C41.6649 31.747 41.8378 31.6202 42.0126 31.4966L42.0878 31.4445C42.1401 31.4081 42.1925 31.372 42.245 31.3366L42.2925 31.3044C42.3864 31.2411 42.4811 31.1792 42.5766 31.1187L42.6241 31.0888L42.6712 31.0595C42.7182 31.0304 42.7653 31.0015 42.8118 30.9736L42.8585 30.9458L42.952 30.8913C42.9827 30.8736 43.0131 30.8562 43.0436 30.839L43.062 30.8286L43.1346 30.789C43.1647 30.7726 43.195 30.7568 43.2249 30.7413L43.2698 30.7183L43.3131 30.6962C43.4123 30.6464 43.5133 30.6003 43.6161 30.5582C43.6301 30.5523 43.644 30.5466 43.6579 30.5406C43.6854 30.5291 43.7127 30.5185 43.7399 30.5091C43.767 30.4999 43.7938 30.4904 43.8201 30.481C43.8442 30.473 43.8674 30.4656 43.8901 30.4585L43.8977 30.4562C43.9098 30.4525 43.9219 30.449 43.934 30.4459L43.9375 30.4449C43.9621 30.4378 43.9867 30.4314 44.0116 30.4255H44.0135C44.05 30.4167 44.0856 30.4093 44.1203 30.4035C44.1322 30.4015 44.144 30.3996 44.1553 30.398C44.1891 30.3929 44.2231 30.3894 44.257 30.3871C44.2785 30.3855 44.3002 30.3849 44.3217 30.3849H44.3381C44.36 30.3849 44.3811 30.3863 44.402 30.3884C44.4115 30.3884 44.4211 30.3902 44.4305 30.3916H44.4344C44.4438 30.3925 44.4533 30.3941 44.4625 30.396C44.4717 30.398 44.4811 30.3994 44.4901 30.4015H44.4932C44.5022 30.4035 44.5106 30.406 44.5199 30.4085C44.5945 30.4287 44.6631 30.4666 44.7199 30.5189L44.725 30.524L44.735 30.5337L44.7447 30.5441C44.823 30.6265 44.8879 30.7208 44.9367 30.8236L44.9443 30.841C44.9609 30.88 44.974 30.9204 44.9832 30.9618C45.0086 31.0773 45.0018 31.1976 44.9633 31.3093C44.9467 31.3579 44.9264 31.4052 44.9023 31.4505L44.8863 31.4794C44.8254 31.5816 44.7535 31.6767 44.6717 31.763L44.6541 31.7816C44.6156 31.8224 44.5756 31.862 44.5344 31.9001C44.5213 31.9124 44.5078 31.9247 44.4942 31.937L44.4734 31.9558C44.4305 31.9938 44.3865 32.031 44.342 32.0673C44.3342 32.0735 44.3262 32.0798 44.3186 32.0864C44.2875 32.1114 44.2555 32.1368 44.2223 32.1622C44.1078 32.2497 43.9912 32.3341 43.8725 32.4155C43.8026 32.4634 43.7303 32.5116 43.6557 32.5606C43.5166 32.6518 43.3766 32.7411 43.2352 32.8286C43.1944 32.8538 43.1534 32.8794 43.1116 32.9048C42.7274 33.1411 42.3014 33.3938 41.8472 33.6686L41.7296 33.7401C41.6009 33.8186 41.4794 33.8936 41.3651 33.9649L41.3075 34.0012L41.1986 34.0711C41.1554 34.0985 41.1134 34.1254 41.0726 34.152C41.0417 34.1717 41.0116 34.1912 40.9822 34.2106L40.924 34.2489C40.8956 34.2674 40.8675 34.286 40.8394 34.3049L40.812 34.3223C40.7831 34.3416 40.755 34.3606 40.7277 34.3793L40.6829 34.4098L40.6304 34.4463L40.582 34.4801C40.5054 34.5338 40.4298 34.5887 40.3548 34.6445L40.3287 34.6645C40.2992 34.6867 40.2707 34.709 40.2431 34.7307L40.2072 34.7594C40.1466 34.808 40.0918 34.8547 40.0421 34.8992L40.0179 34.9215C40.0041 34.9342 39.9904 34.9469 39.9775 34.9594C39.9683 34.968 39.9599 34.9768 39.9507 34.9854L39.938 34.9979C39.9101 35.0258 39.883 35.0545 39.8566 35.084L39.8437 35.0988C39.815 35.132 39.79 35.1639 39.7679 35.1949L39.7582 35.209C39.7328 35.2461 39.7103 35.2853 39.6912 35.3262L39.6845 35.3404L39.6804 35.3504L39.6771 35.359L39.6726 35.3709C39.6713 35.375 39.6685 35.3822 39.667 35.3885C39.659 35.4117 39.6531 35.4357 39.6492 35.4601L39.6472 35.4732L39.6457 35.4851L39.6447 35.4967V35.558C39.6447 35.5631 39.6447 35.5683 39.6459 35.5736C39.6461 35.5767 39.6465 35.5799 39.6468 35.583C39.6468 35.5881 39.6482 35.5931 39.6488 35.5984L39.6525 35.6199V35.6209C39.6539 35.6277 39.6552 35.6346 39.657 35.6414C39.6588 35.6482 39.6605 35.6558 39.6627 35.6631C39.6689 35.6851 39.6765 35.707 39.6853 35.7283C39.6853 35.7299 39.6867 35.7316 39.6873 35.7332C39.6896 35.7385 39.6918 35.7439 39.6943 35.7492C39.7039 35.7715 39.7146 35.7931 39.7263 35.8144L39.7386 35.8365L39.7515 35.8588L39.765 35.881C39.7673 35.8847 39.7699 35.8881 39.7728 35.8914L39.7773 35.8961L39.782 35.9004L39.7873 35.9045C39.7908 35.907 39.7945 35.9092 39.7984 35.9113C39.8023 35.9131 39.8066 35.915 39.8109 35.9166C39.8156 35.9181 39.8203 35.9195 39.825 35.9207C39.9377 35.9461 40.1693 35.8527 40.4769 35.6902L40.5322 35.6609L40.6257 35.6099L40.6716 35.5846C40.704 35.567 40.7374 35.5474 40.7712 35.5281L40.8331 35.4932C41.24 35.259 41.7261 34.958 42.2284 34.6643C42.2753 34.6367 42.3225 34.6094 42.3698 34.582L42.4647 34.5215C42.5122 34.4942 42.5594 34.4672 42.6069 34.4406C42.8089 34.3258 43.0135 34.2155 43.2204 34.1098L43.3131 34.0627C43.3749 34.0323 43.436 34.0026 43.4963 33.9737C43.6133 33.9182 43.7315 33.8657 43.8508 33.8159L43.9162 33.7893L43.9242 33.7862C44.2707 33.6489 44.585 33.5639 44.8393 33.5639C44.8943 33.5635 44.9492 33.568 45.0035 33.5774H45.0051C45.0227 33.5805 45.0385 33.584 45.0545 33.5881H45.0574C45.0809 33.5938 45.1039 33.601 45.1262 33.61C45.1439 33.6165 45.1611 33.6241 45.1777 33.6331C45.2506 33.67 45.3129 33.7245 45.3594 33.7916C45.3633 33.7973 45.367 33.8032 45.3705 33.8092C45.3877 33.8354 45.4025 33.8629 45.4146 33.8918C45.4219 33.9084 45.4285 33.9256 45.4347 33.9442C45.441 33.9629 45.4465 33.9809 45.4521 34.0002C45.4935 34.1483 45.4894 34.3049 45.4404 34.4506Z" fill="#FF9D00"/>
<path fill-rule="evenodd" clip-rule="evenodd" d="M43.1366 23.8426V23.7469C43.1366 15.5726 36.5122 8.94604 28.3372 8.94604C20.1627 8.94604 13.5358 15.573 13.5358 23.7469L13.5356 23.779C13.5354 23.8003 13.5352 23.8214 13.5356 23.8426C13.5365 23.8745 13.5369 23.9063 13.5366 23.9382L13.5377 24.0085L13.5381 24.0338L13.5391 24.0686C13.5395 24.0874 13.5401 24.1059 13.5401 24.1247L13.542 24.2006L13.5452 24.2899L13.5461 24.3192L13.55 24.4116V24.4159L13.5555 24.5239V24.5266C13.5575 24.5635 13.5594 24.6004 13.5618 24.6372C13.5637 24.6713 13.5659 24.7053 13.5682 24.7393L13.5688 24.7454C13.5705 24.7745 13.5725 24.8037 13.5746 24.8328L13.5752 24.8405C13.5772 24.8686 13.5793 24.8969 13.5817 24.9248L13.5821 24.9303L13.586 24.9791C13.5977 25.1199 13.6113 25.2608 13.627 25.4012L13.628 25.41L13.6397 25.5131L13.6532 25.6217C13.6622 25.694 13.6718 25.766 13.6821 25.8381C13.6882 25.8816 13.6945 25.925 13.701 25.9684L13.702 25.9736C13.7166 26.0717 13.7323 26.1697 13.7492 26.2674C13.7978 26.5508 13.8549 26.8328 13.9203 27.1129L13.9213 27.1173L13.9276 27.1437C13.9334 27.1687 13.9393 27.1937 13.9455 27.2189L13.9563 27.2058C14.3859 26.6922 15.0023 26.409 15.692 26.409C16.2447 26.409 16.8118 26.5916 17.38 26.9519C17.7569 27.1914 18.1737 27.6156 18.6026 28.149C18.9995 27.5976 19.5557 27.2314 20.192 27.1314C20.3135 27.1123 20.4361 27.1025 20.5588 27.1023C22.0113 27.1023 22.886 28.3628 23.2165 29.4964C23.3796 29.8796 24.1667 31.6238 25.3534 32.8039C27.157 34.606 27.6084 36.4657 26.7158 38.4568H26.7187C26.7797 38.4635 26.8408 38.4697 26.9021 38.4754C26.9387 38.4789 26.9752 38.4824 27.0117 38.4855L27.0246 38.4867C27.0513 38.4893 27.0783 38.4916 27.1053 38.4935L27.1795 38.4996C27.2502 38.5051 27.3211 38.51 27.3924 38.5146L27.4486 38.518L27.4933 38.5205L27.5213 38.5221L27.6084 38.5268L27.6322 38.5277L27.724 38.5316L27.8257 38.5355L27.9078 38.5379L27.9214 38.5385C27.9386 38.5391 27.9562 38.5398 27.9736 38.5398L27.9921 38.5402C28.1074 38.543 28.2224 38.5443 28.3376 38.5443H28.4599L28.5474 38.5434C28.5689 38.5422 28.5902 38.5422 28.6116 38.5422H28.6456L28.6751 38.5416C28.6866 38.5412 28.6984 38.5408 28.7099 38.5408H28.7448L28.8134 38.5389L28.9165 38.5353L29.0302 38.5305C29.0628 38.5291 29.0952 38.5275 29.1278 38.5258L29.1628 38.5238L29.2146 38.5209L29.2452 38.5191L29.2681 38.5178L29.373 38.5107C29.4079 38.5086 29.4429 38.5059 29.4778 38.5031L29.5728 38.4957L29.6397 38.49L29.713 38.4834C29.7882 38.4764 29.8632 38.4689 29.9378 38.4611C29.9854 38.4559 30.0327 38.4506 30.0802 38.4449L30.1636 38.435C29.2849 36.452 29.7397 34.6007 31.5362 32.8056C32.7201 31.6227 33.5072 29.878 33.6713 29.495C34.0019 28.3613 34.8759 27.1009 36.3288 27.1009C36.4516 27.1011 36.5743 27.1107 36.6956 27.13C37.3313 27.23 37.8877 27.5964 38.2852 28.1476C38.7143 27.6142 39.1309 27.19 39.5078 26.9506C40.0759 26.5902 40.6435 26.4076 41.1956 26.4076C41.8042 26.4076 42.3559 26.6283 42.7725 27.033C42.7954 26.931 42.8175 26.8291 42.8385 26.7267C42.8514 26.6629 42.8641 26.5988 42.8766 26.5346C42.8919 26.4556 42.9063 26.3764 42.9196 26.2971C42.9231 26.2756 42.9268 26.2541 42.9309 26.2324C42.9374 26.1986 42.943 26.1652 42.9483 26.1312L42.9505 26.1184L42.9643 26.0299L42.978 25.9402L42.9782 25.9393C42.9837 25.9018 42.9893 25.8641 42.9944 25.8264C42.9985 25.7979 43.0024 25.7693 43.0061 25.7406L43.0085 25.7242L43.0206 25.6309L43.0305 25.5514C43.0366 25.499 43.0424 25.4467 43.0481 25.3942C43.0506 25.3733 43.0528 25.3522 43.0549 25.3311L43.0569 25.3141C43.0606 25.2791 43.0639 25.2444 43.0671 25.2094L43.0749 25.1282C43.0911 24.9481 43.1042 24.768 43.1143 24.5875V24.5864L43.1196 24.4907L43.1206 24.4692L43.1245 24.3784C43.126 24.3442 43.1274 24.3096 43.1286 24.2747V24.2721L43.1296 24.2469C43.1305 24.2254 43.1313 24.204 43.1313 24.1827L43.1317 24.1739C43.1325 24.154 43.1333 24.1333 43.1333 24.1128L43.1339 24.0952C43.1344 24.0747 43.135 24.0544 43.135 24.0338L43.1354 24.0165C43.136 23.9903 43.1366 23.9643 43.1366 23.9382V23.8426ZM24.6663 38.6287C25.8383 36.9096 25.7553 35.6194 24.1469 34.012C22.5386 32.4047 21.6025 30.054 21.6025 30.054C21.6025 30.054 21.2531 28.6884 20.4562 28.814C19.6594 28.9394 19.0749 30.9797 20.7431 32.2287C22.4115 33.4777 20.4113 34.3245 19.7692 33.1525C19.1268 31.9803 17.3737 28.9673 16.4646 28.3909C15.5556 27.8146 14.9164 28.1376 15.1306 29.3255C15.2371 29.9151 16.2269 30.9213 17.1517 31.8615C18.0899 32.8156 18.9612 33.7013 18.7751 34.0148C18.4054 34.6374 17.1032 33.2834 17.1032 33.2834C17.1032 33.2834 13.026 29.5731 12.1384 30.5401C11.3202 31.4313 12.5819 32.1889 14.5264 33.3564C14.6918 33.4558 14.8621 33.5582 15.0365 33.6636C17.2611 35.0105 17.4341 35.3657 17.1185 35.8753C17.0019 36.0635 16.2572 35.6165 15.3412 35.0665C13.7797 34.129 11.7206 32.8929 11.43 33.9994C11.1782 34.9569 12.693 35.5436 14.0668 36.0759C15.2113 36.5192 16.2582 36.9247 16.1043 37.475C15.9447 38.0455 15.0797 37.5697 14.134 37.0495C13.0725 36.4653 11.9095 35.8253 11.529 36.5475C10.8095 37.9127 16.4917 39.5199 16.5384 39.5316C18.3743 40.0078 23.0366 41.0167 24.6663 38.6287ZM32.2176 38.6287C31.0454 36.9096 31.1286 35.6194 32.7369 34.012C34.3453 32.4047 35.2816 30.054 35.2816 30.054C35.2816 30.054 35.6308 28.6884 36.4276 28.814C37.2245 28.9394 37.8092 30.9797 36.1407 32.2287C34.4722 33.4777 36.4725 34.3245 37.1149 33.1525C37.7571 31.9803 39.5094 28.9673 40.4183 28.3909C41.3273 27.8146 41.9667 28.1376 41.7524 29.3255C41.646 29.9151 40.6562 30.9215 39.7312 31.8617C38.7932 32.8156 37.9219 33.7013 38.108 34.0148C38.4776 34.6374 39.7808 33.2826 39.7808 33.2826C39.7808 33.2826 43.8578 29.5723 44.7455 30.5393C45.5637 31.4305 44.3018 32.1883 42.3573 33.356C42.1919 33.4552 42.0218 33.5574 41.8474 33.663C39.6226 35.0097 39.4498 35.3651 39.7654 35.8745C39.882 36.0628 40.6267 35.6157 41.5425 35.0659C43.1042 34.1285 45.1633 32.8922 45.4539 33.9986C45.7056 34.9562 44.1908 35.5431 42.8169 36.0753C41.6724 36.5186 40.6257 36.9239 40.7794 37.4744C40.939 38.0449 41.8036 37.569 42.7489 37.0487C43.8104 36.4645 44.9736 35.8243 45.3543 36.5467C46.0738 37.9129 40.3908 39.5183 40.3447 39.5302C38.5088 40.0078 33.8464 41.0167 32.2176 38.6287Z" fill="#FFD21E"/>
<path fill-rule="evenodd" clip-rule="evenodd" d="M33.1444 19.7182C33.3751 19.7999 33.5467 20.0485 33.71 20.2848C33.9307 20.6045 34.1362 20.9018 34.4514 20.7342C34.8235 20.5366 35.1283 20.2331 35.3277 19.862C35.5272 19.491 35.6119 19.0692 35.5715 18.6499C35.5414 18.3364 35.4422 18.0335 35.2809 17.763C35.1195 17.4925 34.9002 17.2611 34.6389 17.0856C34.3774 16.91 34.0801 16.7947 33.7688 16.7478C33.4573 16.701 33.1393 16.7238 32.8378 16.8146C32.4345 16.9361 32.0763 17.1743 31.8083 17.4993C31.5406 17.8243 31.3749 18.2213 31.3326 18.6404C31.2904 19.0595 31.3734 19.4817 31.571 19.8536C31.7171 20.1284 32.0413 19.9989 32.3835 19.862C32.6519 19.7548 32.9311 19.6431 33.1444 19.7182ZM23.1104 19.7184C22.8797 19.8001 22.7078 20.0487 22.5446 20.285C22.3239 20.6045 22.1184 20.902 21.8032 20.7344C21.5253 20.5866 21.2837 20.3788 21.0956 20.1262C20.9075 19.8737 20.7778 19.5827 20.7157 19.274C20.6536 18.9653 20.6606 18.6467 20.7364 18.3411C20.8124 18.0355 20.955 17.7505 21.154 17.5066C21.3534 17.2628 21.6042 17.0663 21.8885 16.9311C22.1729 16.7959 22.4838 16.7254 22.7986 16.7247C23.1135 16.724 23.4246 16.7931 23.7096 16.9271C23.9945 17.061 24.2463 17.2565 24.4466 17.4994C24.7146 17.8243 24.8802 18.2215 24.9226 18.6406C24.9648 19.0597 24.8818 19.4819 24.6839 19.8538C24.5375 20.1286 24.2133 19.9989 23.8711 19.862C23.6029 19.7548 23.3236 19.6431 23.1104 19.7184ZM31.5921 28.8492C33.1825 27.5961 33.7667 25.5507 33.7667 24.2906C33.7667 23.2945 33.0964 23.608 32.0236 24.139L31.9632 24.1691C30.9783 24.6568 29.6674 25.306 28.2284 25.306C26.7891 25.306 25.4783 24.6566 24.4937 24.1689C23.3861 23.6203 22.6914 23.2761 22.6914 24.2908C22.6914 25.5905 23.3129 27.725 25.0189 28.9652C25.2439 28.5082 25.5607 28.1026 25.9497 27.7737C26.3386 27.4448 26.7913 27.1998 27.2794 27.054C27.4497 27.0032 27.6251 27.2963 27.8047 27.5963C27.978 27.886 28.1549 28.182 28.3352 28.182C28.527 28.182 28.7156 27.8903 28.8998 27.6053C29.0922 27.3077 29.2797 27.0174 29.4611 27.0754C30.3744 27.3686 31.1382 28.0043 31.5921 28.8492Z" fill="#32343D"/>
<path d="M31.5912 28.8491C30.7629 29.5018 29.662 29.9395 28.2284 29.9395C26.8814 29.9395 25.8277 29.5532 25.0186 28.9651C25.2437 28.5083 25.5607 28.1027 25.9496 27.774C26.3384 27.4451 26.7912 27.2 27.279 27.0539C27.6136 26.9541 27.9679 28.182 28.3347 28.182C28.7274 28.182 29.1057 26.9619 29.4608 27.0753C30.3737 27.3687 31.1373 28.0044 31.5912 28.8491Z" fill="#FF323D"/>
<path fill-rule="evenodd" clip-rule="evenodd" d="M19.3076 21.4906C19.1565 21.5923 18.9868 21.6632 18.8082 21.6992C18.6296 21.7351 18.4457 21.7355 18.267 21.7003C18.0882 21.665 17.9182 21.5949 17.7667 21.4939C17.6151 21.3927 17.485 21.2629 17.3838 21.1113C17.2825 20.9599 17.2122 20.7898 17.1768 20.6113C17.1414 20.4326 17.1416 20.2486 17.1774 20.0699C17.2132 19.8914 17.2839 19.7217 17.3854 19.5703C17.487 19.4191 17.6174 19.2894 17.7692 19.1887C18.0745 18.9861 18.4476 18.9128 18.8068 18.9848C19.166 19.0568 19.4821 19.2683 19.6857 19.5729C19.8892 19.8776 19.9638 20.2504 19.8929 20.6098C19.822 20.9693 19.6115 21.2861 19.3076 21.4906ZM39.114 21.4906C38.9628 21.5923 38.7931 21.6632 38.6146 21.6992C38.4361 21.7351 38.2521 21.7355 38.0734 21.7003C37.8947 21.665 37.7246 21.5949 37.573 21.4939C37.4215 21.3927 37.2914 21.2629 37.1902 21.1113C37.0889 20.9599 37.0186 20.7898 36.9832 20.6113C36.9479 20.4326 36.9481 20.2486 36.9838 20.0699C37.0195 19.8914 37.0902 19.7217 37.1918 19.5703C37.2934 19.4191 37.4238 19.2894 37.5756 19.1887C37.8808 18.9861 38.2541 18.9128 38.6132 18.9848C38.9724 19.0568 39.2884 19.2683 39.4921 19.5729C39.6956 19.8776 39.7702 20.2504 39.6993 20.6098C39.6284 20.9693 39.4179 21.2861 39.114 21.4906Z" fill="#FFAD03"/>
</g>
</g>
<defs>
<clipPath id="clip0_3_6728">
<rect width="188.08" height="50" fill="white"/>
</clipPath>
<clipPath id="clip1_3_6728">
<rect width="188.08" height="50" fill="white"/>
</clipPath>
</defs>
</svg>
