<svg width="24" height="25" viewBox="0 0 24 25" fill="none" xmlns="http://www.w3.org/2000/svg">
<g clip-path="url(#clip0_3_7822)">
<path d="M12 0.470703C8.7435 0.470703 8.334 0.485703 7.0545 0.542703C5.775 0.602703 4.9035 0.803703 4.14 1.1007C3.33914 1.40193 2.61374 1.87444 2.0145 2.4852C1.40411 3.08475 0.931661 3.81006 0.63 4.6107C0.333 5.3727 0.1305 6.2457 0.072 7.5207C0.015 8.8032 0 9.2112 0 12.4722C0 15.7302 0.015 16.1382 0.072 17.4177C0.132 18.6957 0.333 19.5672 0.63 20.3307C0.9375 21.1197 1.347 21.7887 2.0145 22.4562C2.6805 23.1237 3.3495 23.5347 4.1385 23.8407C4.9035 24.1377 5.7735 24.3402 7.0515 24.3987C8.3325 24.4557 8.7405 24.4707 12 24.4707C15.2595 24.4707 15.666 24.4557 16.947 24.3987C18.2235 24.3387 19.098 24.1377 19.8615 23.8407C20.6618 23.5393 21.3867 23.0668 21.9855 22.4562C22.653 21.7887 23.0625 21.1197 23.37 20.3307C23.6655 19.5672 23.868 18.6957 23.928 17.4177C23.985 16.1382 24 15.7302 24 12.4707C24 9.2112 23.985 8.8032 23.928 7.5222C23.868 6.2457 23.6655 5.3727 23.37 4.6107C23.0684 3.81004 22.5959 3.08472 21.9855 2.4852C21.3864 1.87422 20.661 1.40167 19.86 1.1007C19.095 0.803703 18.222 0.601203 16.9455 0.542703C15.6645 0.485703 15.258 0.470703 11.997 0.470703H12.0015H12ZM10.9245 2.6337H12.0015C15.2055 2.6337 15.585 2.6442 16.8495 2.7027C18.0195 2.7552 18.6555 2.9517 19.0785 3.1152C19.638 3.3327 20.0385 3.5937 20.4585 4.0137C20.8785 4.4337 21.138 4.8327 21.3555 5.3937C21.5205 5.8152 21.7155 6.4512 21.768 7.6212C21.8265 8.8857 21.8385 9.2652 21.8385 12.4677C21.8385 15.6702 21.8265 16.0512 21.768 17.3157C21.7155 18.4857 21.519 19.1202 21.3555 19.5432C21.1631 20.0642 20.856 20.5354 20.457 20.9217C20.037 21.3417 19.638 21.6012 19.077 21.8187C18.657 21.9837 18.021 22.1787 16.8495 22.2327C15.585 22.2897 15.2055 22.3032 12.0015 22.3032C8.7975 22.3032 8.4165 22.2897 7.152 22.2327C5.982 22.1787 5.3475 21.9837 4.9245 21.8187C4.40325 21.6266 3.93169 21.3201 3.5445 20.9217C3.14513 20.5348 2.83758 20.0632 2.6445 19.5417C2.481 19.1202 2.2845 18.4842 2.232 17.3142C2.175 16.0497 2.163 15.6702 2.163 12.4647C2.163 9.2607 2.175 8.8827 2.232 7.6182C2.286 6.4482 2.481 5.8122 2.646 5.3892C2.8635 4.8297 3.1245 4.4292 3.5445 4.0092C3.9645 3.5892 4.3635 3.3297 4.9245 3.1122C5.3475 2.9472 5.982 2.7522 7.152 2.6982C8.259 2.6472 8.688 2.6322 10.9245 2.6307V2.6337ZM18.4065 4.6257C18.2174 4.6257 18.0301 4.66295 17.8554 4.73532C17.6807 4.80768 17.522 4.91375 17.3883 5.04747C17.2545 5.18119 17.1485 5.33993 17.0761 5.51464C17.0037 5.68935 16.9665 5.8766 16.9665 6.0657C16.9665 6.25481 17.0037 6.44206 17.0761 6.61677C17.1485 6.79148 17.2545 6.95022 17.3883 7.08394C17.522 7.21765 17.6807 7.32372 17.8554 7.39609C18.0301 7.46846 18.2174 7.5057 18.4065 7.5057C18.7884 7.5057 19.1547 7.35399 19.4247 7.08394C19.6948 6.81388 19.8465 6.44761 19.8465 6.0657C19.8465 5.68379 19.6948 5.31752 19.4247 5.04747C19.1547 4.77742 18.7884 4.6257 18.4065 4.6257ZM12.0015 6.3087C11.1841 6.29595 10.3723 6.44593 9.61347 6.74991C8.85459 7.0539 8.16377 7.50581 7.58123 8.07934C6.99868 8.65287 6.53605 9.33655 6.22026 10.0906C5.90448 10.8446 5.74185 11.654 5.74185 12.4715C5.74185 13.2889 5.90448 14.0983 6.22026 14.8523C6.53605 15.6064 6.99868 16.29 7.58123 16.8636C8.16377 17.4371 8.85459 17.889 9.61347 18.193C10.3723 18.497 11.1841 18.647 12.0015 18.6342C13.6193 18.609 15.1623 17.9486 16.2975 16.7956C17.4326 15.6426 18.0689 14.0895 18.0689 12.4715C18.0689 10.8534 17.4326 9.30032 16.2975 8.14733C15.1623 6.99433 13.6193 6.33394 12.0015 6.3087ZM12.0015 8.4702C13.0625 8.4702 14.08 8.89168 14.8303 9.64192C15.5805 10.3922 16.002 11.4097 16.002 12.4707C16.002 13.5317 15.5805 14.5492 14.8303 15.2995C14.08 16.0497 13.0625 16.4712 12.0015 16.4712C10.9405 16.4712 9.92296 16.0497 9.17272 15.2995C8.42248 14.5492 8.001 13.5317 8.001 12.4707C8.001 11.4097 8.42248 10.3922 9.17272 9.64192C9.92296 8.89168 10.9405 8.4702 12.0015 8.4702Z" fill="white"/>
</g>
<defs>
<clipPath id="clip0_3_7822">
<rect width="24" height="24" fill="white" transform="translate(0 0.470703)"/>
</clipPath>
</defs>
</svg>
