<svg width="24" height="25" viewBox="0 0 24 25" fill="none" xmlns="http://www.w3.org/2000/svg">
<g clip-path="url(#clip0_3_7828)">
<path d="M0 2.1897C0 1.2402 0.789 0.470703 1.7625 0.470703H22.2375C23.211 0.470703 24 1.2402 24 2.1897V22.7517C24 23.7012 23.211 24.4707 22.2375 24.4707H1.7625C0.789 24.4707 0 23.7012 0 22.7517V2.1897ZM7.4145 20.5617V9.7242H3.813V20.5617H7.4145ZM5.6145 8.2437C6.87 8.2437 7.6515 7.4127 7.6515 6.3717C7.629 5.3082 6.8715 4.4997 5.6385 4.4997C4.4055 4.4997 3.6 5.3097 3.6 6.3717C3.6 7.4127 4.3815 8.2437 5.5905 8.2437H5.6145ZM12.9765 20.5617V14.5092C12.9765 14.1852 13.0005 13.8612 13.0965 13.6302C13.356 12.9837 13.9485 12.3132 14.9445 12.3132C16.248 12.3132 16.7685 13.3062 16.7685 14.7642V20.5617H20.37V14.3457C20.37 11.0157 18.594 9.4677 16.224 9.4677C14.313 9.4677 13.4565 10.5177 12.9765 11.2572V11.2947H12.9525C12.9605 11.2822 12.9685 11.2697 12.9765 11.2572V9.7242H9.3765C9.4215 10.7412 9.3765 20.5617 9.3765 20.5617H12.9765Z" fill="white"/>
</g>
<defs>
<clipPath id="clip0_3_7828">
<rect width="24" height="24" fill="white" transform="translate(0 0.470703)"/>
</clipPath>
</defs>
</svg>
