<svg width="24" height="25" viewBox="0 0 24 25" fill="none" xmlns="http://www.w3.org/2000/svg">
<path d="M7.539 22.9708C16.596 22.9708 21.5505 15.4663 21.5505 8.96977C21.5505 8.75977 21.5505 8.54677 21.5415 8.33677C22.5061 7.63849 23.3386 6.77399 24 5.78377C23.099 6.18104 22.1441 6.44287 21.1665 6.56077C22.1963 5.94522 22.9676 4.97672 23.337 3.83527C22.3695 4.40845 21.3105 4.81083 20.2065 5.02477C19.4643 4.2343 18.4821 3.71064 17.4121 3.5349C16.3421 3.35916 15.2441 3.54115 14.288 4.05267C13.3319 4.5642 12.5712 5.37671 12.1237 6.36436C11.6761 7.352 11.5668 8.45967 11.8125 9.51577C9.85461 9.41759 7.93922 8.90897 6.19056 8.02288C4.4419 7.13679 2.89903 5.89303 1.662 4.37227C1.03401 5.45689 0.842361 6.73987 1.12597 7.96067C1.40958 9.18146 2.14718 10.2486 3.189 10.9453C2.40831 10.9187 1.64478 10.7091 0.96 10.3333V10.4008C0.961346 11.537 1.35496 12.6379 2.07431 13.5174C2.79366 14.3969 3.79462 15.0011 4.908 15.2278C4.48539 15.3442 4.04884 15.4022 3.6105 15.4003C3.30148 15.4012 2.99307 15.3726 2.6895 15.3148C3.00418 16.2929 3.61691 17.148 4.44187 17.7605C5.26683 18.3729 6.2627 18.712 7.29 18.7303C5.54483 20.101 3.3891 20.8444 1.17 20.8408C0.778981 20.8424 0.388235 20.8199 0 20.7733C2.25227 22.2092 4.86795 22.9716 7.539 22.9708Z" fill="white"/>
</svg>
