<svg width="24" height="25" viewBox="0 0 24 25" fill="none" xmlns="http://www.w3.org/2000/svg">
<g clip-path="url(#clip0_3_7831)">
<path d="M12.0765 3.46875H12.21C13.443 3.47325 19.6905 3.51825 21.375 3.97125C21.8842 4.1095 22.3483 4.37898 22.7207 4.75276C23.0932 5.12654 23.361 5.59153 23.4975 6.10125C23.649 6.67125 23.7555 7.42575 23.8275 8.20425L23.8425 8.36025L23.8755 8.75025L23.8875 8.90625C23.985 10.2773 23.997 11.5613 23.9985 11.8418V11.9543C23.997 12.2453 23.9835 13.6163 23.8755 15.0443L23.8635 15.2018L23.85 15.3578C23.775 16.2158 23.664 17.0678 23.4975 17.6948C23.3615 18.2047 23.0938 18.6699 22.7212 19.0437C22.3487 19.4176 21.8844 19.6869 21.375 19.8248C19.635 20.2928 13.0215 20.3258 12.105 20.3273H11.892C11.4285 20.3273 9.5115 20.3183 7.5015 20.2493L7.2465 20.2403L7.116 20.2343L6.8595 20.2238L6.603 20.2133C4.938 20.1398 3.3525 20.0213 2.622 19.8233C2.11273 19.6855 1.6486 19.4164 1.27609 19.0429C0.903575 18.6693 0.63577 18.2044 0.4995 17.6948C0.333 17.0693 0.222 16.2158 0.147 15.3578L0.135 15.2003L0.123 15.0443C0.0489714 14.0278 0.0079498 13.0093 0 11.9903L0 11.8058C0.003 11.4833 0.015 10.3688 0.096 9.13875L0.1065 8.98425L0.111 8.90625L0.123 8.75025L0.156 8.36025L0.171 8.20425C0.243 7.42575 0.3495 6.66975 0.501 6.10125C0.63704 5.59132 0.904743 5.12612 1.27727 4.75227C1.6498 4.37843 2.11405 4.10909 2.6235 3.97125C3.354 3.77625 4.9395 3.65625 6.6045 3.58125L6.8595 3.57075L7.1175 3.56175L7.2465 3.55725L7.503 3.54675C8.93056 3.50081 10.3587 3.47531 11.787 3.47025H12.0765V3.46875ZM9.6 8.28375V15.5108L15.8355 11.8988L9.6 8.28375Z" fill="white"/>
</g>
<defs>
<clipPath id="clip0_3_7831">
<rect width="24" height="24" fill="white" transform="translate(0 0.470703)"/>
</clipPath>
</defs>
</svg>
