<svg width="24" height="25" viewBox="0 0 24 25" fill="none" xmlns="http://www.w3.org/2000/svg">
<g clip-path="url(#clip0_3_7819)">
<path d="M24.0001 12.5438C24.0001 5.87475 18.6271 0.46875 12.0001 0.46875C5.37007 0.47025 -0.00292969 5.87475 -0.00292969 12.5453C-0.00292969 18.5708 4.38607 23.5657 10.1221 24.4717V16.0343H7.07707V12.5453H10.1251V9.88275C10.1251 6.85725 11.9176 5.18625 14.6581 5.18625C15.9721 5.18625 17.3446 5.42175 17.3446 5.42175V8.39175H15.8311C14.3416 8.39175 13.8766 9.32325 13.8766 10.2787V12.5438H17.2036L16.6726 16.0328H13.8751V24.4702C19.6111 23.5642 24.0001 18.5693 24.0001 12.5438Z" fill="white"/>
</g>
<defs>
<clipPath id="clip0_3_7819">
<rect width="24" height="24" fill="white" transform="translate(0 0.470703)"/>
</clipPath>
</defs>
</svg>
