<svg width="210" height="34" viewBox="0 0 210 34" fill="none" xmlns="http://www.w3.org/2000/svg">
<g clip-path="url(#clip0_3_6284)">
<path d="M43.8337 16.3116C43.8337 21.103 40.5509 24.0361 35.5363 24.0361H30.4346V8.47754H35.5363C40.5509 8.47754 43.8337 11.5071 43.8337 16.3116ZM35.5363 21.9523C39.2252 21.9523 41.2009 19.8492 41.2009 16.3116C41.2009 12.7748 39.2245 10.5582 35.5363 10.5582H32.9901V21.9523H35.5363Z" fill="#F65B66"/>
<path d="M51.7043 24.235C48.1513 24.235 45.5225 21.7304 45.5225 17.8578C45.5225 13.9851 48.0386 11.5068 51.7036 11.5068C55.2326 11.5068 57.7287 13.9458 57.7287 17.5721C57.7341 17.9852 57.7079 18.3982 57.6492 18.8074H48.1853C48.3652 20.8441 49.8244 22.0748 51.7136 22.0748C53.2871 22.0748 54.1633 21.312 54.6366 20.35H57.4021C56.6957 22.5133 54.7401 24.235 51.7043 24.235ZM48.1984 16.7592H55.0528C55.0095 14.8583 53.5032 13.6478 51.5908 13.6478C49.8614 13.6478 48.4686 14.8251 48.1984 16.7592Z" fill="#F65B66"/>
<path d="M65.5764 24.235C62.0242 24.235 59.3945 21.7304 59.3945 17.8578C59.3945 13.9851 61.9138 11.5068 65.5764 11.5068C69.1047 11.5068 71.6008 13.9458 71.6008 17.5721C71.6048 17.9857 71.5748 18.3988 71.5112 18.8074H62.0473C62.2272 20.8441 63.6903 22.0748 65.5756 22.0748C67.1522 22.0748 68.0285 21.312 68.4986 20.35H71.2642C70.5678 22.5133 68.6121 24.235 65.5764 24.235ZM62.0705 16.7592H68.9248C68.8816 14.8583 67.3753 13.6478 65.466 13.6478C63.7335 13.6478 62.3407 14.8251 62.0705 16.7592Z" fill="#F65B66"/>
<path d="M81.0019 11.5068C84.2608 11.5068 86.824 14.0122 86.824 17.8115C86.824 21.61 84.2608 24.235 81.0019 24.235C80.1774 24.2415 79.3616 24.0665 78.6124 23.7223C77.864 23.3787 77.2008 22.8741 76.6699 22.2446V29.8996H74.1074V11.7022H76.6707V13.5142C77.1908 12.8704 77.8519 12.3547 78.6028 12.0067C79.3537 11.6587 80.1745 11.4876 81.0019 11.5068ZM80.4391 13.7234C78.5298 13.7234 76.6869 15.2235 76.6869 17.8647C76.6869 20.5052 78.5298 22.0261 80.4391 22.0261C82.3484 22.0261 84.2175 20.4666 84.2175 17.8107C84.2175 15.1571 82.3715 13.7165 80.4391 13.7165V13.7234Z" fill="#F65B66"/>
<path d="M91.9316 8.47754V21.9762H97.2133V24.0361H89.3691V8.47754H91.9316Z" fill="#F65B66"/>
<path d="M104.679 24.235C101.126 24.235 98.4971 21.7304 98.4971 17.8578C98.4971 13.9851 101.016 11.5068 104.679 11.5068C108.207 11.5068 110.703 13.9458 110.703 17.5721C110.708 17.9921 110.678 18.4117 110.614 18.8267H101.15C101.33 20.8642 102.793 22.0949 104.679 22.0949C106.255 22.0949 107.131 21.3321 107.601 20.3693H110.367C109.67 22.5133 107.715 24.235 104.679 24.235ZM101.173 16.7592H108.027C107.984 14.8583 106.478 13.6478 104.569 13.6478C102.836 13.6478 101.443 14.8251 101.173 16.7592Z" fill="#F65B66"/>
<path d="M118.214 11.5072C119.036 11.4829 119.852 11.6503 120.598 11.9959C121.344 12.3413 121.998 12.8557 122.509 13.4983V11.7033H125.095V24.0362H122.509V22.1987C121.996 22.8523 121.337 23.3769 120.585 23.7305C119.832 24.0841 119.008 24.257 118.177 24.2354C114.962 24.2354 112.376 21.6181 112.376 17.8118C112.376 14.0056 114.965 11.5072 118.214 11.5072ZM118.754 13.723C116.845 13.723 115.002 15.1536 115.002 17.818C115.002 20.4824 116.845 22.0257 118.754 22.0257C120.663 22.0257 122.509 20.5295 122.509 17.8643C122.509 15.2007 120.686 13.7168 118.754 13.7168V13.723Z" fill="#F65B66"/>
<path d="M131.033 24.0366H128.471V11.7029H131.033V13.498C131.75 12.2665 132.99 11.5068 134.742 11.5068V14.1612H134.076C132.187 14.1612 131.02 14.944 131.02 17.5621L131.033 24.0366Z" fill="#F65B66"/>
<path d="M145.892 17.1478C145.892 14.8857 144.655 13.7237 142.789 13.7237C140.923 13.7237 139.667 14.8849 139.667 17.1478V24.0361H137.104V11.704H139.667V13.1138C140.127 12.5932 140.695 12.1796 141.332 11.9022C141.969 11.6248 142.658 11.4902 143.353 11.5079C146.252 11.5079 148.434 13.3199 148.434 16.7672V24.0369H145.892V17.1478Z" fill="#F65B66"/>
<path d="M151.361 8.4343C151.364 8.11384 151.462 7.80134 151.641 7.53607C151.821 7.27081 152.075 7.06463 152.372 6.94345C152.669 6.82184 152.996 6.79052 153.311 6.85341C153.626 6.9163 153.915 7.07061 154.143 7.29706C154.37 7.52374 154.524 7.81243 154.587 8.12674C154.65 8.44105 154.618 8.76689 154.496 9.06318C154.373 9.35946 154.166 9.61293 153.9 9.79161C153.634 9.97029 153.321 10.0662 153.001 10.0672C152.785 10.0696 152.571 10.029 152.371 9.94793C152.171 9.86682 151.989 9.74675 151.836 9.5947C151.683 9.44295 151.562 9.26201 151.481 9.06266C151.399 8.86332 151.359 8.64962 151.361 8.4343ZM151.694 11.7032H154.257V24.0361H151.694V11.704V11.7032Z" fill="#F65B66"/>
<path d="M166.423 17.1474C166.423 14.8853 165.186 13.7234 163.32 13.7234C161.454 13.7234 160.195 14.8845 160.195 17.1474V24.0357H157.618V11.7037H160.181V13.1134C160.643 12.5919 161.215 12.178 161.854 11.9006C162.494 11.6232 163.186 11.489 163.883 11.5075C166.782 11.5075 168.948 13.3126 168.948 16.7599V24.0365H166.409L166.423 17.1474Z" fill="#F65B66"/>
<path d="M177.216 11.5071C179.239 11.5071 180.745 12.4459 181.508 13.4983V11.7032H184.094V24.2345C184.094 27.593 181.914 30.1245 178.049 30.1245C174.743 30.1245 172.294 28.4886 171.978 25.7578H174.517C174.9 27.0355 176.273 27.908 178.049 27.908C180.025 27.908 181.508 26.6966 181.508 24.2345V22.1777C181.001 22.8298 180.35 23.3552 179.605 23.7122C178.86 24.0693 178.042 24.2484 177.216 24.2353C173.957 24.2353 171.371 21.6165 171.371 17.811C171.371 14.0047 173.947 11.5063 177.216 11.5063V11.5071ZM177.756 13.7229C175.843 13.7229 174.001 15.1536 174.001 17.8179C174.001 20.4831 175.843 22.0257 177.756 22.0257C179.668 22.0257 181.508 20.5294 181.508 17.8643C181.508 15.2006 179.688 13.7168 177.756 13.7168V13.7229Z" fill="#F65B66"/>
<path d="M187.38 24.1925C187.054 24.1968 186.735 24.1047 186.462 23.9279C186.189 23.7511 185.975 23.4974 185.845 23.1989C185.749 22.9755 185.705 22.7334 185.714 22.4905C185.724 22.2475 185.787 22.0097 185.901 21.7946C186.014 21.5794 186.174 21.3922 186.369 21.2467C186.563 21.1012 186.788 21.0011 187.027 20.9537C187.346 20.8891 187.677 20.9203 187.978 21.0434C188.28 21.1665 188.538 21.376 188.721 21.6455C188.902 21.9149 188.999 22.2322 188.999 22.5565C189.003 22.8787 188.91 23.1945 188.732 23.4636C188.555 23.7326 188.302 23.9426 188.004 24.0667C187.806 24.1493 187.594 24.1921 187.38 24.1925Z" fill="#F65B66"/>
<path d="M201.186 20.8575H194.641L193.517 24.036H190.852L196.45 8.44043H199.419L205.014 24.036H202.318L201.186 20.8575ZM197.94 11.5433L195.36 18.7737H200.465L197.94 11.5433Z" fill="#F65B66"/>
<path d="M207.438 8.47754H210V24.0361H207.438V8.47754Z" fill="#F65B66"/>
<path fill-rule="evenodd" clip-rule="evenodd" d="M12.8491 29.465C10.3075 29.465 7.823 28.7146 5.71064 27.3086C3.59946 25.9051 1.95234 23.9065 0.977922 21.5661C0.00567488 19.2294 -0.248851 16.6562 0.246782 14.1744C0.74374 11.6904 1.96782 9.41022 3.76351 7.62346C5.5628 5.83236 7.85176 4.61361 10.3422 4.12063C12.8347 3.62718 15.4174 3.88073 17.7663 4.84945C20.1121 5.81571 22.119 7.45534 23.5336 9.56133C24.9447 11.6634 25.6983 14.1379 25.6985 16.6697C25.6985 20.0636 24.3451 23.3171 21.9355 25.7174C19.5212 28.1188 16.2542 29.4662 12.8491 29.465ZM12.9456 24.3478C18.2774 24.3478 22.6095 19.9486 22.6095 14.5195C22.6095 9.09191 18.2782 4.69504 12.9456 4.69504C7.61377 4.69504 3.28175 9.09423 3.28175 14.5195C3.28175 19.9447 7.61377 24.3478 12.9456 24.3478ZM12.8491 22.0949C7.99362 22.0949 4.05844 18.2925 4.05844 13.6007C4.05844 8.90894 7.99825 5.10269 12.8491 5.10269C17.7007 5.10269 21.6398 8.90894 21.6398 13.6007C21.6398 18.2925 17.7046 22.0949 12.8491 22.0949ZM12.6623 18.6145C16.345 18.6145 19.3274 15.7741 19.3274 12.2697C19.3274 8.76611 16.328 5.92261 12.6623 5.92261C8.9973 5.92261 5.99785 8.76302 5.99785 12.2697C5.99785 15.7772 8.9973 18.6145 12.6623 18.6145ZM12.7595 17.3869C9.87667 17.3869 7.54042 14.9109 7.54042 11.859C7.54042 8.80625 9.8705 6.33103 12.7518 6.33103C15.6347 6.33103 17.9709 8.80625 17.9709 11.859C17.9709 14.9117 15.6385 17.3869 12.7518 17.3869H12.7595ZM12.6623 12.5384C13.2251 12.5384 13.774 12.3732 14.2419 12.062C14.709 11.7514 15.0733 11.3091 15.2888 10.7912C15.5041 10.2741 15.5605 9.70448 15.4508 9.15514C15.3411 8.6058 15.0702 8.10159 14.6727 7.70684C14.2745 7.31035 13.7679 7.04057 13.2167 6.93149C12.6655 6.8224 12.0944 6.87888 11.5752 7.09383C11.0562 7.30752 10.6121 7.67021 10.299 8.13611C9.98688 8.60121 9.82025 9.14867 9.82031 9.70879C9.82186 10.4585 10.1214 11.1772 10.6541 11.7084C11.1878 12.2392 11.9095 12.5378 12.6623 12.5392V12.5384Z" fill="#F65B66"/>
<path fill-rule="evenodd" clip-rule="evenodd" d="M12.8491 29.465C10.3075 29.465 7.823 28.7146 5.71064 27.3086C3.59946 25.9051 1.95234 23.9065 0.977922 21.5661C0.00567488 19.2294 -0.248851 16.6562 0.246782 14.1744C0.74374 11.6904 1.96782 9.41022 3.76351 7.62346C5.5628 5.83236 7.85176 4.61361 10.3422 4.12063C12.8347 3.62718 15.4174 3.88073 17.7663 4.84945C20.1121 5.81571 22.119 7.45534 23.5336 9.56133C24.9447 11.6634 25.6983 14.1379 25.6985 16.6697C25.6985 20.0636 24.3451 23.3171 21.9355 25.7174C19.5212 28.1188 16.2542 29.4662 12.8491 29.465ZM12.9456 24.3478C18.2774 24.3478 22.6095 19.9486 22.6095 14.5195C22.6095 9.09191 18.2782 4.69504 12.9456 4.69504C7.61377 4.69504 3.28175 9.09423 3.28175 14.5195C3.28175 19.9447 7.61377 24.3478 12.9456 24.3478ZM12.8491 22.0949C7.99362 22.0949 4.05844 18.2925 4.05844 13.6007C4.05844 8.90894 7.99825 5.10269 12.8491 5.10269C17.7007 5.10269 21.6398 8.90894 21.6398 13.6007C21.6398 18.2925 17.7046 22.0949 12.8491 22.0949ZM12.6623 18.6145C16.345 18.6145 19.3274 15.7741 19.3274 12.2697C19.3274 8.76611 16.328 5.92261 12.6623 5.92261C8.9973 5.92261 5.99785 8.76302 5.99785 12.2697C5.99785 15.7772 8.9973 18.6145 12.6623 18.6145Z" fill="#F65B66"/>
<path fill-rule="evenodd" clip-rule="evenodd" d="M12.8491 29.465C10.3075 29.465 7.823 28.7146 5.71064 27.3086C3.59946 25.9051 1.95234 23.9065 0.977922 21.5661C0.00567488 19.2294 -0.248851 16.6562 0.246782 14.1744C0.74374 11.6904 1.96782 9.41022 3.76351 7.62346C5.5628 5.83236 7.85176 4.61361 10.3422 4.12063C12.8347 3.62718 15.4174 3.88073 17.7663 4.84945C20.1121 5.81571 22.119 7.45534 23.5336 9.56133C24.9447 11.6634 25.6983 14.1379 25.6985 16.6697C25.6985 20.0636 24.3451 23.3171 21.9355 25.7174C19.5212 28.1188 16.2542 29.4662 12.8491 29.465ZM12.9456 24.3478C18.2774 24.3478 22.6095 19.9486 22.6095 14.5195C22.6095 9.09191 18.2782 4.69504 12.9456 4.69504C7.61377 4.69504 3.28175 9.09423 3.28175 14.5195C3.28175 19.9447 7.61377 24.3478 12.9456 24.3478Z" fill="#F65B66"/>
</g>
<defs>
<clipPath id="clip0_3_6284">
<rect width="210" height="34" fill="white"/>
</clipPath>
</defs>
</svg>
