<svg width="29" height="21" viewBox="0 0 29 21" fill="none" xmlns="http://www.w3.org/2000/svg">
<path fill-rule="evenodd" clip-rule="evenodd" d="M20.5928 5.76251C20.7803 5.57504 21.0346 5.46973 21.2998 5.46973C21.565 5.46973 21.8193 5.57504 22.0068 5.76251L26.0068 9.76251C26.1943 9.95004 26.2996 10.2043 26.2996 10.4695C26.2996 10.7347 26.1943 10.989 26.0068 11.1765L22.0068 15.1765C21.8182 15.3587 21.5656 15.4595 21.3034 15.4572C21.0412 15.4549 20.7904 15.3497 20.605 15.1643C20.4196 14.9789 20.3144 14.7281 20.3121 14.4659C20.3099 14.2037 20.4106 13.9511 20.5928 13.7625L22.8858 11.4695H11.2998C11.0346 11.4695 10.7802 11.3642 10.5927 11.1766C10.4052 10.9891 10.2998 10.7347 10.2998 10.4695C10.2998 10.2043 10.4052 9.94994 10.5927 9.76241C10.7802 9.57487 11.0346 9.46951 11.2998 9.46951H22.8858L20.5928 7.17651C20.4053 6.98899 20.3 6.73468 20.3 6.46951C20.3 6.20435 20.4053 5.95004 20.5928 5.76251Z" fill="white"/>
</svg>
