<svg width="29" height="28" viewBox="0 0 29 28" fill="none" xmlns="http://www.w3.org/2000/svg">
<path d="M7.33008 13.875C8.71079 13.875 9.83008 12.7557 9.83008 11.375C9.83008 9.99429 8.71079 8.875 7.33008 8.875C5.94937 8.875 4.83008 9.99429 4.83008 11.375C4.83008 12.7557 5.94937 13.875 7.33008 13.875Z" stroke="#F65B66" stroke-width="2"/>
<path d="M4.70508 21.875V18.625C4.70508 18.0946 4.91579 17.5859 5.29086 17.2108C5.66594 16.8357 6.17465 16.625 6.70508 16.625H9.08008M9.08008 16.625V21.875M9.08008 16.625L11.6861 17.928C11.9637 18.0667 12.2697 18.1389 12.5801 18.1389C12.8904 18.1389 13.1965 18.0667 13.4741 17.928L15.2051 17.062M4.70508 6.125H21.9551C22.4855 6.125 22.9942 6.33571 23.3693 6.71079C23.7444 7.08586 23.9551 7.59457 23.9551 8.125V21M12.3301 22H25.3301M13.4551 13.125H20.4551M13.4551 9.625H16.0801M19.5801 9.625H20.4551" stroke="#F65B66" stroke-width="2" stroke-linecap="round"/>
</svg>
