<svg width="220" height="35" viewBox="0 0 220 35" fill="none" xmlns="http://www.w3.org/2000/svg">
<path d="M45.9209 16.7491C45.9209 21.7687 42.4818 24.8414 37.2285 24.8414H31.8838V8.54199H37.2285C42.4818 8.54199 45.9209 11.7158 45.9209 16.7491ZM37.2285 22.6584C41.0931 22.6584 43.1628 20.4552 43.1628 16.7491C43.1628 13.0439 41.0922 10.7218 37.2285 10.7218H34.561V22.6584H37.2285Z" fill="white"/>
<path d="M54.1667 25.0501C50.4445 25.0501 47.6904 22.4263 47.6904 18.3692C47.6904 14.3121 50.3264 11.7158 54.1659 11.7158C57.863 11.7158 60.4779 14.2709 60.4779 18.0699C60.4836 18.5027 60.4561 18.9354 60.3946 19.3641H50.4801C50.6685 21.4977 52.1972 22.787 54.1764 22.787C55.8248 22.787 56.7428 21.9879 57.2386 20.9801H60.1358C59.3957 23.2464 57.347 25.0501 54.1667 25.0501ZM50.4938 17.2182H57.6745C57.6293 15.2269 56.0512 13.9587 54.0478 13.9587C52.236 13.9587 50.7769 15.1921 50.4938 17.2182Z" fill="white"/>
<path d="M68.6999 25.0501C64.9785 25.0501 62.2236 22.4263 62.2236 18.3692C62.2236 14.3121 64.8628 11.7158 68.6999 11.7158C72.3962 11.7158 75.0111 14.2709 75.0111 18.0699C75.0153 18.5031 74.9839 18.936 74.9173 19.3641H65.0027C65.1912 21.4977 66.7239 22.787 68.6991 22.787C70.3507 22.787 71.2687 21.9879 71.7613 20.9801H74.6585C73.9289 23.2464 71.8802 25.0501 68.6999 25.0501ZM65.027 17.2182H72.2078C72.1625 15.2269 70.5844 13.9587 68.5842 13.9587C66.7692 13.9587 65.3101 15.1921 65.027 17.2182Z" fill="white"/>
<path d="M84.8585 11.7164C88.2726 11.7164 90.9579 14.341 90.9579 18.3212C90.9579 22.3006 88.2726 25.0506 84.8585 25.0506C83.9948 25.0575 83.1401 24.8741 82.3552 24.5136C81.5713 24.1536 80.8764 23.625 80.3202 22.9655V30.985H77.6357V11.921H80.321V13.8193C80.866 13.1449 81.5585 12.6046 82.3452 12.24C83.1318 11.8754 83.9917 11.6963 84.8585 11.7164ZM84.2689 14.0385C82.2687 14.0385 80.338 15.61 80.338 18.377C80.338 21.1432 82.2687 22.7366 84.2689 22.7366C86.2691 22.7366 88.2273 21.1028 88.2273 18.3204C88.2273 15.5405 86.2934 14.0312 84.2689 14.0312V14.0385Z" fill="white"/>
<path d="M96.3095 8.54199V22.6835H101.843V24.8414H93.625V8.54199H96.3095Z" fill="white"/>
<path d="M109.663 25.0501C105.941 25.0501 103.187 22.4263 103.187 18.3692C103.187 14.3121 105.826 11.7158 109.663 11.7158C113.359 11.7158 115.974 14.2709 115.974 18.0699C115.979 18.5099 115.947 18.9495 115.88 19.3843H105.966C106.154 21.5188 107.687 22.808 109.663 22.808C111.314 22.808 112.232 22.0089 112.724 21.0003H115.621C114.892 23.2464 112.843 25.0501 109.663 25.0501ZM105.99 17.2182H113.171C113.125 15.2269 111.547 13.9587 109.547 13.9587C107.732 13.9587 106.273 15.1921 105.99 17.2182Z" fill="white"/>
<path d="M123.844 11.7163C124.705 11.6909 125.56 11.8662 126.342 12.2283C127.122 12.5901 127.808 13.129 128.343 13.8022V11.9217H131.052V24.8419H128.343V22.9169C127.806 23.6016 127.115 24.1512 126.327 24.5216C125.539 24.8921 124.675 25.0732 123.805 25.0505C120.436 25.0505 117.728 22.3086 117.728 18.3211C117.728 14.3336 120.44 11.7163 123.844 11.7163ZM124.409 14.0376C122.409 14.0376 120.478 15.5364 120.478 18.3276C120.478 21.1189 122.409 22.7357 124.409 22.7357C126.409 22.7357 128.343 21.1682 128.343 18.3761C128.343 15.5857 126.434 14.0311 124.409 14.0311V14.0376Z" fill="white"/>
<path d="M137.273 24.8422H134.589V11.9213H137.273V13.8018C138.024 12.5117 139.323 11.7158 141.159 11.7158V14.4966H140.461C138.482 14.4966 137.26 15.3167 137.26 18.0594L137.273 24.8422Z" fill="white"/>
<path d="M152.84 17.6249C152.84 15.2551 151.544 14.0378 149.589 14.0378C147.634 14.0378 146.318 15.2543 146.318 17.6249V24.8412H143.634V11.9219H146.318V13.3988C146.8 12.8534 147.395 12.4202 148.062 12.1296C148.73 11.8389 149.452 11.6979 150.18 11.7165C153.217 11.7165 155.503 13.6148 155.503 17.2262V24.8421H152.84V17.6249Z" fill="white"/>
<path d="M158.569 8.49693C158.571 8.16121 158.673 7.83382 158.862 7.55593C159.05 7.27803 159.316 7.06203 159.627 6.93509C159.939 6.80768 160.281 6.77487 160.611 6.84076C160.941 6.90664 161.244 7.0683 161.483 7.30553C161.72 7.543 161.882 7.84545 161.948 8.17472C162.013 8.50399 161.98 8.84535 161.852 9.15575C161.724 9.46615 161.507 9.73168 161.228 9.91887C160.949 10.1061 160.621 10.2065 160.286 10.2076C160.06 10.2101 159.835 10.1676 159.626 10.0826C159.416 9.99766 159.226 9.87187 159.065 9.71259C158.905 9.55361 158.779 9.36406 158.693 9.15521C158.608 8.94637 158.566 8.7225 158.569 8.49693ZM158.917 11.9215H161.602V24.8416H158.917V11.9223V11.9215Z" fill="white"/>
<path d="M174.348 17.6251C174.348 15.2552 173.052 14.0379 171.097 14.0379C169.142 14.0379 167.823 15.2544 167.823 17.6251V24.8414H165.124V11.9221H167.809V13.399C168.293 12.8526 168.892 12.419 169.562 12.1284C170.232 11.8377 170.957 11.6972 171.688 11.7166C174.725 11.7166 176.993 13.6076 176.993 17.219V24.8422H174.333L174.348 17.6251Z" fill="white"/>
<path d="M185.656 11.7157C187.775 11.7157 189.353 12.6992 190.152 13.8016V11.9211H192.861V25.0491C192.861 28.5675 190.578 31.2196 186.529 31.2196C183.065 31.2196 180.5 29.5057 180.168 26.6449H182.828C183.229 27.9835 184.667 28.8975 186.529 28.8975C188.598 28.8975 190.152 27.6284 190.152 25.0491V22.8944C189.621 23.5775 188.938 24.1279 188.158 24.502C187.378 24.876 186.521 25.0636 185.656 25.0499C182.241 25.0499 179.532 22.3064 179.532 18.3197C179.532 14.3322 182.231 11.7148 185.656 11.7148V11.7157ZM186.221 14.037C184.217 14.037 182.287 15.5357 182.287 18.327C182.287 21.119 184.217 22.7351 186.221 22.7351C188.225 22.7351 190.152 21.1676 190.152 18.3755C190.152 15.5851 188.246 14.0305 186.221 14.0305V14.037Z" fill="white"/>
<path d="M196.303 25.0055C195.962 25.01 195.628 24.9136 195.342 24.7283C195.056 24.5431 194.831 24.2773 194.696 23.9646C194.595 23.7305 194.548 23.477 194.558 23.2224C194.568 22.9679 194.635 22.7188 194.753 22.4934C194.872 22.2679 195.039 22.0719 195.244 21.9195C195.448 21.7671 195.683 21.6622 195.933 21.6125C196.267 21.5448 196.614 21.5775 196.93 21.7065C197.246 21.8354 197.516 22.0549 197.708 22.3372C197.898 22.6195 198 22.9519 198 23.2916C198.003 23.6292 197.906 23.96 197.72 24.2419C197.534 24.5237 197.269 24.7437 196.957 24.8737C196.75 24.9603 196.527 25.0051 196.303 25.0055Z" fill="white"/>
<path d="M210.767 21.5122H203.91L202.733 24.8421H199.94L205.805 8.50391H208.916L214.777 24.8421H211.953L210.767 21.5122ZM207.366 11.7546L204.664 19.3292H210.012L207.366 11.7546Z" fill="white"/>
<path d="M217.315 8.54199H220V24.8414H217.315V8.54199Z" fill="white"/>
<path fill-rule="evenodd" clip-rule="evenodd" d="M13.461 30.5293C10.7983 30.5293 8.19552 29.7431 5.98258 28.2702C3.77086 26.7998 2.04531 24.7061 1.02449 22.2542C0.00594512 19.8063 -0.260701 17.1105 0.258534 14.5105C0.779156 11.9083 2.06152 9.51951 3.94272 7.64766C5.82769 5.77128 8.22565 4.49449 10.8347 3.97803C13.4459 3.46109 16.1516 3.7267 18.6124 4.74156C21.0698 5.75383 23.1723 7.47154 24.6543 9.67781C26.1325 11.88 26.922 14.4723 26.9222 17.1246C26.9222 20.6802 25.5043 24.0886 22.98 26.6032C20.4508 29.1189 17.0282 30.5306 13.461 30.5293ZM13.5621 25.1684C19.1478 25.1684 23.6861 20.5597 23.6861 14.8721C23.6861 9.18604 19.1486 4.57979 13.5621 4.57979C7.97633 4.57979 3.43802 9.18847 3.43802 14.8721C3.43802 20.5557 7.97633 25.1684 13.5621 25.1684ZM13.461 22.8082C8.37427 22.8082 4.2517 18.8248 4.2517 13.9096C4.2517 8.99435 8.37912 5.00685 13.461 5.00685C18.5436 5.00685 22.6702 8.99435 22.6702 13.9096C22.6702 18.8248 18.5477 22.8082 13.461 22.8082ZM13.2652 19.1621C17.1233 19.1621 20.2478 16.1864 20.2478 12.5152C20.2478 8.84472 17.1055 5.86582 13.2652 5.86582C9.42574 5.86582 6.28346 8.84148 6.28346 12.5152C6.28346 16.1896 9.42574 19.1621 13.2652 19.1621ZM13.3671 17.876C10.347 17.876 7.89949 15.2821 7.89949 12.0849C7.89949 8.88678 10.3405 6.29369 13.359 6.29369C16.3792 6.29369 18.8267 8.88678 18.8267 12.0849C18.8267 15.283 16.3832 17.876 13.359 17.876H13.3671ZM13.2652 12.7966C13.8549 12.7966 14.4299 12.6235 14.9201 12.2976C15.4094 11.9722 15.7911 11.5088 16.0168 10.9663C16.2424 10.4245 16.3015 9.82778 16.1865 9.25228C16.0716 8.67677 15.7878 8.14856 15.3714 7.73501C14.9543 7.31965 14.4236 7.03702 13.8461 6.92274C13.2687 6.80845 12.6703 6.86763 12.1264 7.09281C11.5826 7.31668 11.1174 7.69664 10.7894 8.18472C10.4624 8.67197 10.2879 9.2455 10.2879 9.83229C10.2896 10.6177 10.6034 11.3707 11.1615 11.9271C11.7206 12.4832 12.4767 12.796 13.2652 12.7974V12.7966Z" fill="white"/>
<path fill-rule="evenodd" clip-rule="evenodd" d="M13.461 30.5293C10.7983 30.5293 8.19552 29.7431 5.98258 28.2702C3.77086 26.7998 2.04531 24.7061 1.02449 22.2542C0.00594512 19.8063 -0.260701 17.1105 0.258534 14.5105C0.779156 11.9083 2.06152 9.51951 3.94272 7.64766C5.82769 5.77128 8.22565 4.49449 10.8347 3.97803C13.4459 3.46109 16.1516 3.7267 18.6124 4.74156C21.0698 5.75383 23.1723 7.47154 24.6543 9.67781C26.1325 11.88 26.922 14.4723 26.9222 17.1246C26.9222 20.6802 25.5043 24.0886 22.98 26.6032C20.4508 29.1189 17.0282 30.5306 13.461 30.5293ZM13.5621 25.1684C19.1478 25.1684 23.6861 20.5597 23.6861 14.8721C23.6861 9.18604 19.1486 4.57979 13.5621 4.57979C7.97633 4.57979 3.43802 9.18847 3.43802 14.8721C3.43802 20.5557 7.97633 25.1684 13.5621 25.1684ZM13.461 22.8082C8.37427 22.8082 4.2517 18.8248 4.2517 13.9096C4.2517 8.99435 8.37912 5.00685 13.461 5.00685C18.5436 5.00685 22.6702 8.99435 22.6702 13.9096C22.6702 18.8248 18.5477 22.8082 13.461 22.8082ZM13.2652 19.1621C17.1233 19.1621 20.2478 16.1864 20.2478 12.5152C20.2478 8.84472 17.1055 5.86582 13.2652 5.86582C9.42574 5.86582 6.28346 8.84148 6.28346 12.5152C6.28346 16.1896 9.42574 19.1621 13.2652 19.1621Z" fill="white"/>
<path fill-rule="evenodd" clip-rule="evenodd" d="M13.461 30.5293C10.7983 30.5293 8.19552 29.7431 5.98258 28.2702C3.77086 26.7998 2.04531 24.7061 1.02449 22.2542C0.00594512 19.8063 -0.260701 17.1105 0.258534 14.5105C0.779156 11.9083 2.06152 9.51951 3.94272 7.64766C5.82769 5.77128 8.22565 4.49449 10.8347 3.97803C13.4459 3.46109 16.1516 3.7267 18.6124 4.74156C21.0698 5.75383 23.1723 7.47154 24.6543 9.67781C26.1325 11.88 26.922 14.4723 26.9222 17.1246C26.9222 20.6802 25.5043 24.0886 22.98 26.6032C20.4508 29.1189 17.0282 30.5306 13.461 30.5293ZM13.5621 25.1684C19.1478 25.1684 23.6861 20.5597 23.6861 14.8721C23.6861 9.18604 19.1486 4.57979 13.5621 4.57979C7.97633 4.57979 3.43802 9.18847 3.43802 14.8721C3.43802 20.5557 7.97633 25.1684 13.5621 25.1684Z" fill="white"/>
</svg>
