<svg width="96" height="58" viewBox="0 0 96 58" fill="none" xmlns="http://www.w3.org/2000/svg">
<g clip-path="url(#clip0_3_7767)">
<path d="M27.2857 20.967C27.2857 22.1353 27.412 23.0826 27.633 23.7772C27.8856 24.4719 28.2014 25.2298 28.6435 26.0507C28.8014 26.3033 28.8645 26.556 28.8645 26.777C28.8645 27.0928 28.675 27.4085 28.2646 27.7243L26.2753 29.0505C25.9911 29.2399 25.7069 29.3347 25.4543 29.3347C25.1385 29.3347 24.8227 29.1768 24.507 28.8926C24.0649 28.419 23.686 27.9137 23.3702 27.4085C23.0545 26.8717 22.7387 26.2718 22.3914 25.5455C19.9284 28.4505 16.834 29.903 13.108 29.903C10.4555 29.903 8.33994 29.1452 6.7927 27.6295C5.24546 26.1139 4.45605 24.093 4.45605 21.5669C4.45605 18.8829 5.40334 16.7042 7.32949 15.0622C9.25565 13.4202 11.8133 12.5992 15.0657 12.5992C16.1393 12.5992 17.2444 12.694 18.4128 12.8519C19.5811 13.0097 20.781 13.2623 22.044 13.5465V11.2415C22.044 8.84167 21.5388 7.16813 20.5599 6.18927C19.5495 5.2104 17.8444 4.73676 15.413 4.73676C14.3078 4.73676 13.1711 4.86306 12.0028 5.14725C10.8345 5.43143 9.69771 5.77877 8.59255 6.22084C8.08733 6.44188 7.70841 6.56818 7.48738 6.63133C7.26634 6.69449 7.10846 6.72606 6.98216 6.72606C6.54009 6.72606 6.31905 6.4103 6.31905 5.7472V4.19996C6.31905 3.69474 6.38221 3.31582 6.54009 3.09479C6.69797 2.87376 6.98216 2.65272 7.42422 2.43169C8.52939 1.86332 9.8556 1.38967 11.4028 1.01076C12.9501 0.600266 14.592 0.410809 16.3287 0.410809C20.0863 0.410809 22.8334 1.26337 24.6017 2.96849C26.3384 4.6736 27.2225 7.26286 27.2225 10.7362V20.967H27.2857ZM14.4657 25.7665C15.5077 25.7665 16.5813 25.5771 17.7181 25.1982C18.8548 24.8193 19.8653 24.1246 20.7178 23.1773C21.2231 22.5773 21.602 21.9142 21.7914 21.1564C21.9809 20.3986 22.1072 19.4829 22.1072 18.4093V17.0831C21.1915 16.862 20.2126 16.6726 19.2022 16.5463C18.1917 16.42 17.2129 16.3568 16.234 16.3568C14.1184 16.3568 12.5712 16.7673 11.5291 17.6199C10.4871 18.4724 9.9819 19.6723 9.9819 21.2511C9.9819 22.7352 10.3608 23.8404 11.1502 24.5982C11.9081 25.3876 13.0132 25.7665 14.4657 25.7665ZM39.8215 29.1768C39.2531 29.1768 38.8742 29.0821 38.6216 28.861C38.369 28.6716 38.1479 28.2295 37.9585 27.6295L30.538 3.2211C30.3486 2.58957 30.2539 2.17908 30.2539 1.95805C30.2539 1.45283 30.5065 1.16864 31.0117 1.16864H34.1062C34.7061 1.16864 35.1166 1.26337 35.3376 1.4844C35.5903 1.67386 35.7797 2.11593 35.9692 2.71588L41.274 23.6194L46.1999 2.71588C46.3578 2.08435 46.5472 1.67386 46.7998 1.4844C47.0524 1.29494 47.4945 1.16864 48.0629 1.16864H50.589C51.1889 1.16864 51.5994 1.26337 51.852 1.4844C52.1046 1.67386 52.3257 2.11593 52.452 2.71588L57.441 23.872L62.9037 2.71588C63.0932 2.08435 63.3142 1.67386 63.5352 1.4844C63.7879 1.29494 64.1983 1.16864 64.7667 1.16864H67.7033C68.2085 1.16864 68.4927 1.42125 68.4927 1.95805C68.4927 2.11593 68.4611 2.27381 68.4296 2.46327C68.398 2.65272 68.3348 2.90533 68.2085 3.25267L60.5986 27.6611C60.4092 28.2927 60.1882 28.7031 59.9356 28.8926C59.6829 29.0821 59.2724 29.2084 58.7356 29.2084H56.0201C55.4201 29.2084 55.0097 29.1136 54.757 28.8926C54.5044 28.6716 54.2834 28.2611 54.1571 27.6295L49.2628 7.26286L44.4 27.598C44.2421 28.2295 44.0527 28.64 43.8001 28.861C43.5475 29.0821 43.1054 29.1768 42.537 29.1768H39.8215ZM80.397 30.0293C78.755 30.0293 77.113 29.8399 75.5342 29.461C73.9554 29.0821 72.7239 28.6716 71.903 28.1979C71.3977 27.9137 71.0504 27.598 70.9241 27.3138C70.7978 27.0296 70.7346 26.7138 70.7346 26.4296V24.8193C70.7346 24.1562 70.9872 23.8404 71.4609 23.8404C71.6503 23.8404 71.8398 23.872 72.0293 23.9351C72.2187 23.9983 72.5029 24.1246 72.8187 24.2509C73.8923 24.7245 75.0606 25.1034 76.2921 25.3561C77.5551 25.6087 78.7866 25.735 80.0496 25.735C82.0389 25.735 83.5862 25.3876 84.6598 24.693C85.7334 23.9983 86.3017 22.9878 86.3017 21.6932C86.3017 20.8091 86.0175 20.0828 85.4492 19.4829C84.8808 18.8829 83.8072 18.3461 82.26 17.8409L77.6814 16.42C75.3763 15.6937 73.6712 14.6201 72.6292 13.1992C71.5872 11.8098 71.0504 10.2626 71.0504 8.62064C71.0504 7.29443 71.3346 6.12611 71.903 5.11567C72.4713 4.10523 73.2292 3.2211 74.1764 2.52642C75.1237 1.80016 76.1973 1.26337 77.4604 0.884453C78.7234 0.505538 80.0496 0.347656 81.439 0.347656C82.1337 0.347656 82.8599 0.379233 83.5546 0.473961C84.2809 0.56869 84.944 0.694995 85.6071 0.8213C86.2386 0.979181 86.8385 1.13706 87.4069 1.32652C87.9753 1.51598 88.4173 1.70544 88.7331 1.89489C89.1752 2.1475 89.4909 2.40011 89.6804 2.6843C89.8699 2.93691 89.9646 3.28425 89.9646 3.72632V5.2104C89.9646 5.8735 89.712 6.22084 89.2383 6.22084C88.9857 6.22084 88.5752 6.09454 88.0384 5.84193C86.2386 5.02094 84.2177 4.61045 81.9758 4.61045C80.1759 4.61045 78.755 4.89464 77.7761 5.49459C76.7973 6.09454 76.2921 7.01025 76.2921 8.30487C76.2921 9.18901 76.6078 9.94684 77.2393 10.5468C77.8709 11.1467 79.0392 11.7467 80.7127 12.2835L85.1966 13.7044C87.47 14.4307 89.112 15.4411 90.0909 16.7357C91.0697 18.0304 91.5434 19.5144 91.5434 21.1564C91.5434 22.5142 91.2592 23.7457 90.7224 24.8193C90.154 25.8929 89.3962 26.8401 88.4173 27.598C87.4385 28.3874 86.2701 28.9558 84.9124 29.3662C83.4914 29.8083 82.0074 30.0293 80.397 30.0293Z" fill="white"/>
<path fill-rule="evenodd" clip-rule="evenodd" d="M86.3656 45.3763C75.9771 53.0493 60.8836 57.1226 47.9058 57.1226C29.7178 57.1226 13.3297 50.3969 0.951851 39.2189C-0.0270129 38.3348 0.857122 37.1349 2.02544 37.8295C15.4138 45.5973 31.9282 50.3022 49.0109 50.3022C60.5363 50.3022 73.1983 47.9024 84.85 42.9765C86.5867 42.1871 88.0708 44.1132 86.3656 45.3763Z" fill="white"/>
<path fill-rule="evenodd" clip-rule="evenodd" d="M90.6914 40.4495C89.3652 38.7444 81.9132 39.6285 78.5345 40.039C77.5241 40.1653 77.3662 39.2812 78.2819 38.6181C84.2182 34.45 93.9753 35.6499 95.1121 37.0393C96.2488 38.4602 94.7963 48.2173 89.2389 52.8905C88.3863 53.6168 87.5653 53.2379 87.9442 52.2906C89.2073 49.1645 92.0176 42.123 90.6914 40.4495Z" fill="white"/>
</g>
<defs>
<clipPath id="clip0_3_7767">
<rect width="96" height="57.47" fill="white"/>
</clipPath>
</defs>
</svg>
