<svg width="29" height="28" viewBox="0 0 29 28" fill="none" xmlns="http://www.w3.org/2000/svg">
<path d="M14.6602 23C16.1602 21.21 18.5902 20 24.8742 20C25.0809 20.0008 25.28 19.922 25.4302 19.78C25.5024 19.7118 25.5601 19.6297 25.5998 19.5386C25.6395 19.4475 25.6604 19.3494 25.6612 19.25V5.75C25.6618 5.65038 25.6416 5.55172 25.602 5.46031C25.5624 5.36889 25.5042 5.28671 25.4312 5.219C25.28 5.078 25.0809 4.99972 24.8742 5C18.4132 5.028 15.4462 6.54 14.6602 9.5H14.6592C13.8732 6.54 10.9052 5.028 4.44517 5C4.23858 4.99722 4.0392 5.07589 3.89017 5.219C3.81709 5.28671 3.7589 5.36889 3.71931 5.46031C3.67971 5.55172 3.65957 5.65038 3.66017 5.75V19.16C3.66017 19.623 3.96017 20 4.44617 20C10.7312 20 13.1692 21.219 14.6602 23ZM14.6602 23V9" stroke="#F65B66" stroke-width="2" stroke-linecap="round" stroke-linejoin="round"/>
</svg>
