<svg width="40" height="36" viewBox="0 0 40 36" fill="none" xmlns="http://www.w3.org/2000/svg">
<g clip-path="url(#clip0_3_7778)">
<path d="M34.8132 34.7822C35.8243 34.7822 36.794 34.3805 37.509 33.6655C38.224 32.9506 38.6257 31.9808 38.6257 30.9697V21.6596C38.6257 20.6484 38.224 19.6787 37.509 18.9637C36.794 18.2487 35.8243 17.8471 34.8132 17.8471H29.5214C29.5214 16.5089 29.6015 15.1669 29.7578 13.8287C29.9942 12.4105 30.3907 11.1485 30.9397 10.0467C31.4925 8.94111 32.2016 8.07567 33.0708 7.44279C33.9363 6.73367 35.0381 6.37911 36.3801 6.37911V0.469727C34.1727 0.469727 32.2435 0.942477 30.5851 1.88798C28.9411 2.82389 27.5276 4.1162 26.4485 5.66998C25.3655 7.38299 24.5672 9.2602 24.0848 11.2286C23.5986 13.4008 23.3607 15.6212 23.3757 17.8471V30.9697C23.3757 31.9808 23.7773 32.9506 24.4923 33.6655C25.2073 34.3805 26.177 34.7822 27.1882 34.7822H34.8132ZM11.9382 34.7822C12.9493 34.7822 13.919 34.3805 14.634 33.6655C15.349 32.9506 15.7507 31.9808 15.7507 30.9697V21.6596C15.7507 20.6484 15.349 19.6787 14.634 18.9637C13.919 18.2487 12.9493 17.8471 11.9382 17.8471H6.64641C6.64641 16.5089 6.72647 15.1669 6.88278 13.8287C7.11916 12.4105 7.51566 11.1485 8.06466 10.0467C8.61747 8.94111 9.3266 8.07567 10.1959 7.44279C11.0613 6.73367 12.1631 6.37911 13.5051 6.37911V0.469727C11.2977 0.469727 9.36853 0.942477 7.7101 1.88798C6.0661 2.82389 4.65263 4.1162 3.57354 5.66998C2.4905 7.38299 1.69224 9.2602 1.20979 11.2286C0.723639 13.4008 0.485739 15.6212 0.500661 17.8471V30.9697C0.500661 31.9808 0.902333 32.9506 1.61732 33.6655C2.3323 34.3805 3.30202 34.7822 4.31316 34.7822H11.9382Z" fill="#20CAF2"/>
</g>
<defs>
<clipPath id="clip0_3_7778">
<rect width="39" height="35" fill="white" transform="translate(0.5 0.469727)"/>
</clipPath>
</defs>
</svg>
