<svg width="29" height="28" viewBox="0 0 29 28" fill="none" xmlns="http://www.w3.org/2000/svg">
<path d="M14.6602 22.9999C16.1602 21.2099 18.5902 19.9999 24.8742 19.9999C25.0809 20.0007 25.28 19.9219 25.4302 19.78C25.5024 19.7117 25.5601 19.6296 25.5998 19.5385C25.6395 19.4475 25.6604 19.3493 25.6612 19.2499V5.74995C25.6618 5.65033 25.6416 5.55167 25.602 5.46025C25.5624 5.36884 25.5042 5.28666 25.4312 5.21895C25.28 5.07795 25.0809 4.99967 24.8742 4.99995C18.4132 5.02795 15.4462 6.53995 14.6602 9.49995H14.6592C13.8732 6.53995 10.9052 5.02795 4.44517 4.99995C4.23858 4.99717 4.0392 5.07584 3.89017 5.21895C3.81709 5.28666 3.7589 5.36884 3.71931 5.46025C3.67971 5.55167 3.65957 5.65033 3.66017 5.74995V19.1599C3.66017 19.6229 3.96017 19.9999 4.44617 19.9999C10.7312 19.9999 13.1692 21.2189 14.6602 22.9999ZM14.6602 22.9999V8.99995" stroke="#F65B66" stroke-width="2" stroke-linecap="round" stroke-linejoin="round"/>
</svg>
